<?xml version="1.0" encoding="UTF-8" standalone="no"?>
<!-- Created with Inkscape (http://www.inkscape.org/) -->

<svg
   xmlns:dc="http://purl.org/dc/elements/1.1/"
   xmlns:cc="http://creativecommons.org/ns#"
   xmlns:rdf="http://www.w3.org/1999/02/22-rdf-syntax-ns#"
   xmlns:svg="http://www.w3.org/2000/svg"
   xmlns="http://www.w3.org/2000/svg"
   xmlns:sodipodi="http://sodipodi.sourceforge.net/DTD/sodipodi-0.dtd"
   xmlns:inkscape="http://www.inkscape.org/namespaces/inkscape"
   version="1.1"
   id="svg4250"
   xml:space="preserve"
   width="818.66669"
   height="511.46667"
   viewBox="0 0 818.66669 511.46667"
   sodipodi:docname="MarsPlayerBoard_v3p1_bottom.svg"
   inkscape:version="0.92.2 5c3e80d, 2017-08-06"><metadata
     id="metadata4256"><rdf:RDF><cc:Work
         rdf:about=""><dc:format>image/svg+xml</dc:format><dc:type
           rdf:resource="http://purl.org/dc/dcmitype/StillImage" /><dc:title></dc:title></cc:Work></rdf:RDF></metadata><defs
     id="defs4254"><clipPath
       clipPathUnits="userSpaceOnUse"
       id="clipPath4322"><path
         d="M 0,383.6 H 614 V 0 H 0 Z"
         id="path4320"
         inkscape:connector-curvature="0" /></clipPath><clipPath
       clipPathUnits="userSpaceOnUse"
       id="clipPath4362"><path
         d="M 0,383.6 H 614 V 0 H 0 Z"
         id="path4360"
         inkscape:connector-curvature="0" /></clipPath><clipPath
       clipPathUnits="userSpaceOnUse"
       id="clipPath4390"><path
         d="M 0,383.6 H 614 V 0 H 0 Z"
         id="path4388"
         inkscape:connector-curvature="0" /></clipPath></defs><sodipodi:namedview
     pagecolor="#ffffff"
     bordercolor="#666666"
     borderopacity="1"
     objecttolerance="10"
     gridtolerance="10"
     guidetolerance="10"
     inkscape:pageopacity="0"
     inkscape:pageshadow="2"
     inkscape:window-width="1647"
     inkscape:window-height="822"
     id="namedview4252"
     showgrid="false"
     units="in"
     inkscape:zoom="0.46141814"
     inkscape:cx="112.4226"
     inkscape:cy="255.73334"
     inkscape:window-x="13"
     inkscape:window-y="117"
     inkscape:window-maximized="0"
     inkscape:current-layer="g4258" /><g
     id="g4258"
     inkscape:groupmode="layer"
     inkscape:label="MarsPlayerBoard_v3p1_bottom"
     transform="matrix(1.3333333,0,0,-1.3333333,0,511.46667)"><text
       transform="scale(1,-1)"
       style="font-variant:normal;font-weight:600;font-stretch:normal;font-size:18.28542137px;font-family:'Fira Sans SemiBold';-inkscape-font-specification:FiraSans-SemiBold;writing-mode:lr-tb;fill:#007f00;fill-opacity:1;fill-rule:nonzero;stroke:none;stroke-width:1.01585674"
       id="text4264"
       x="27.606718"
       y="-131.66853"><tspan
         x="27.606718 52.127468 75.020813 98.407867 121.42921"
         y="-131.66853"
         sodipodi:role="line"
         id="tspan4260"
         style="stroke-width:1.01585674">01234</tspan><tspan
         x="39.784809 62.934151 87.198906 109.58026"
         y="-99.486198"
         sodipodi:role="line"
         id="tspan4262"
         style="stroke-width:1.01585674">5678</tspan></text>
<text
       transform="scale(1,-1)"
       style="font-variant:normal;font-weight:600;font-stretch:normal;font-size:24.38055992px;font-family:'Fira Sans SemiBold';-inkscape-font-specification:FiraSans-SemiBold;writing-mode:lr-tb;fill:#007f00;fill-opacity:1;fill-rule:nonzero;stroke:none;stroke-width:1.01585674"
       id="text4268"
       x="89.536797"
       y="-39.509308"><tspan
         x="89.536797"
         y="-39.509308"
         id="tspan4266"
         style="stroke-width:1.01585674">8</tspan></text>
<text
       transform="scale(1,-1)"
       style="font-variant:normal;font-weight:600;font-stretch:normal;font-size:18.28542137px;font-family:'Fira Sans SemiBold';-inkscape-font-specification:FiraSans-SemiBold;writing-mode:lr-tb;fill:#007f00;fill-opacity:1;fill-rule:nonzero;stroke:none;stroke-width:1.01585674"
       id="text4314"
       x="133.1774"
       y="-99.485489"><tspan
         x="133.1774"
         y="-99.485489"
         id="tspan4270"
         style="stroke-width:1.01585674">9</tspan><tspan
         x="173.60646 182.9686"
         y="-100.94832"
         sodipodi:role="line"
         id="tspan4272"
         style="stroke-width:1.01585674">20</tspan><tspan
         x="150.7131 159.05125"
         y="-122.15941"
         sodipodi:role="line"
         id="tspan4274"
         style="stroke-width:1.01585674">10</tspan><tspan
         x="232.41237 256.93311 279.82648 303.21353 326.23486"
         y="-131.66783"
         sodipodi:role="line"
         id="tspan4276"
         style="stroke-width:1.01585674">01234</tspan><tspan
         x="244.59047 267.73981 292.00458 314.38593 337.99237"
         y="-99.485489"
         sodipodi:role="line"
         id="tspan4278"
         style="stroke-width:1.01585674">56789</tspan><tspan
         x="378.42145 387.7836"
         y="-100.94832"
         sodipodi:role="line"
         id="tspan4280"
         style="stroke-width:1.01585674">20</tspan><tspan
         x="355.52811 363.86624"
         y="-122.15941"
         sodipodi:role="line"
         id="tspan4282"
         style="stroke-width:1.01585674">10</tspan><tspan
         x="437.22736 461.74811 484.64145 508.0285 531.04987"
         y="-131.66783"
         sodipodi:role="line"
         id="tspan4284"
         style="stroke-width:1.01585674">01234</tspan><tspan
         x="449.40546 472.55478 496.81955 519.20087 542.80737"
         y="-99.485489"
         sodipodi:role="line"
         id="tspan4286"
         style="stroke-width:1.01585674">56789</tspan><tspan
         x="583.21814 592.58032"
         y="-100.94832"
         sodipodi:role="line"
         id="tspan4288"
         style="stroke-width:1.01585674">20</tspan><tspan
         x="560.32483 568.66296"
         y="-122.15941"
         sodipodi:role="line"
         id="tspan4290"
         style="stroke-width:1.01585674">10</tspan><tspan
         x="292.77255 317.2933 340.18665 363.5737 386.59503"
         y="-185.79268"
         sodipodi:role="line"
         id="tspan4292"
         style="stroke-width:1.01585674">01234</tspan><tspan
         x="304.58493 327.73428 351.99902 374.38037 397.98685"
         y="-217.97501"
         sodipodi:role="line"
         id="tspan4294"
         style="stroke-width:1.01585674">56789</tspan><tspan
         x="415.13858 423.47675"
         y="-197.12964"
         sodipodi:role="line"
         id="tspan4296"
         style="stroke-width:1.01585674">10</tspan><tspan
         x="414.99228 424.35443"
         y="-240.64894"
         sodipodi:role="line"
         id="tspan4298"
         style="stroke-width:1.01585674">20</tspan><tspan
         x="121.25529 145.77605 168.66939 192.05644 215.07779 21.197474 28.621353 45.261089 52.136406 68.611572 75.669746 92.803185 99.312798"
         y="-185.79268"
         sodipodi:role="line"
         id="tspan4300"
         style="stroke-width:1.01585674">01234-4-3-2-1</tspan><tspan
         x="133.45168 156.60101 180.86577 203.24712 226.85359"
         y="-217.97501"
         sodipodi:role="line"
         id="tspan4302"
         style="stroke-width:1.01585674">56789</tspan><tspan
         x="244.00533 252.34348"
         y="-197.12964"
         sodipodi:role="line"
         id="tspan4304"
         style="stroke-width:1.01585674">10</tspan><tspan
         x="243.49333 252.85547"
         y="-240.64894"
         sodipodi:role="line"
         id="tspan4306"
         style="stroke-width:1.01585674">20</tspan><tspan
         x="243.45676 252.87376"
         y="-277.95117"
         sodipodi:role="line"
         id="tspan4308"
         style="stroke-width:1.01585674">30</tspan><tspan
         x="243.07277 253.25775"
         y="-313.79062"
         sodipodi:role="line"
         id="tspan4310"
         style="stroke-width:1.01585674">40</tspan><tspan
         x="243.34705 252.98346"
         y="-349.63004"
         sodipodi:role="line"
         id="tspan4312"
         style="stroke-width:1.01585674">50</tspan></text>
<g
       id="g4316"
       transform="scale(1.0158567)"><g
         id="g4318"
         clip-path="url(#clipPath4322)"><g
           id="g4324"
           transform="translate(75.3773,59.1875)"><path
             d="m 0,0 c -2.318,-3.101 -4.068,-6.534 -5.657,-10.035 -0.729,-1.606 -1.235,-3.333 -1.63,-5.086 -0.291,-1.288 -0.63,-2.592 -1.249,-3.794 -0.819,-1.591 -1.884,-3.004 -3.289,-4.083 -0.606,-0.466 -1.308,-0.893 -2.106,-1.151 -0.567,-0.184 -1.182,-0.338 -1.738,-0.675 -0.464,-0.281 -1.064,-0.552 -1.685,-0.426 -0.627,0.128 -1.122,-0.388 -1.754,-0.307 -0.566,0.073 -1.149,0.015 -1.855,0.015 -2.462,-0.225 -4.783,0.719 -7.059,1.751 -0.889,0.403 -1.856,0.729 -2.543,1.523 -0.281,0.324 -0.921,0.258 -1.256,-0.057 -0.489,-0.46 -0.92,-0.987 -1.435,-1.412 -0.983,-0.813 -1.887,-1.75 -3.098,-2.239 -0.584,-0.235 -1.173,-0.452 -1.837,-0.441 -1.735,0.028 -2.996,1.046 -3.314,2.814 -0.053,0.294 -0.312,0.425 -0.326,0.741 -0.03,0.677 0.429,1.316 1.103,1.347 0.575,0.026 1.153,0.037 1.727,-0.002 1.284,-0.087 2.281,0.515 3.21,1.286 0.294,0.243 0.517,0.579 0.824,0.801 0.791,0.575 0.851,1.408 0.551,2.149 -0.68,1.679 -0.618,3.431 -0.422,5.116 0.153,1.317 0.164,2.72 0.797,3.969 0.381,0.752 0.643,1.558 1,2.323 0.399,0.854 1.107,1.446 1.477,2.264 0.388,0.859 1.099,1.421 1.761,1.991 1.071,0.924 2.254,1.717 3.39,2.564 1.665,0.189 3.003,1.447 4.726,1.449 0.488,0.497 1.191,0.098 1.706,0.393 0.59,0.338 1.224,0.026 1.793,0.196 1.626,0.487 3.281,0.22 4.921,0.263 1.404,0.036 2.779,-0.474 4.198,-0.277 0.539,-0.372 1.242,-0.096 1.73,-0.333 0.592,-0.289 1.279,0 1.719,-0.346 0.539,-0.423 1.186,0.074 1.723,-0.435 C -3.605,1.58 -2.881,2.012 -2.47,1.53 -1.622,1.768 -1.056,0.982 -0.264,0.924 0.228,0.888 0.314,0.421 0,0 m -49.471,-39.735 h 57.6 v 57.6 h -57.6 z"
             style="fill:#007f00;fill-opacity:1;fill-rule:nonzero;stroke:none"
             id="path4326"
             inkscape:connector-curvature="0" /></g><g
           id="g4328"
           transform="translate(129.8417,53.5371)"><path
             d="m 0,0 c -1.159,-1.55 -2.034,-3.267 -2.828,-5.018 -0.364,-0.802 -0.618,-1.666 -0.816,-2.543 -0.145,-0.643 -0.314,-1.295 -0.624,-1.896 -0.409,-0.796 -0.942,-1.502 -1.644,-2.042 -0.303,-0.232 -0.654,-0.446 -1.053,-0.575 -0.284,-0.092 -0.592,-0.169 -0.869,-0.338 -0.232,-0.141 -0.532,-0.276 -0.842,-0.213 -0.314,0.064 -0.561,-0.193 -0.878,-0.153 -0.283,0.036 -0.574,0.007 -0.927,0.007 -1.231,-0.112 -2.392,0.36 -3.53,0.875 -0.444,0.203 -0.927,0.365 -1.272,0.762 -0.139,0.162 -0.46,0.129 -0.627,-0.028 -0.244,-0.231 -0.46,-0.493 -0.718,-0.706 -0.491,-0.406 -0.943,-0.876 -1.549,-1.119 -0.292,-0.118 -0.586,-0.227 -0.919,-0.221 -0.866,0.014 -1.497,0.522 -1.656,1.407 -0.027,0.147 -0.156,0.212 -0.163,0.37 -0.015,0.338 0.214,0.659 0.551,0.673 0.288,0.014 0.577,0.02 0.864,0 0.642,-0.044 1.14,0.257 1.605,0.643 0.147,0.121 0.258,0.289 0.412,0.4 0.395,0.287 0.425,0.704 0.275,1.074 -0.34,0.84 -0.309,1.716 -0.21,2.559 0.076,0.658 0.081,1.359 0.398,1.984 0.19,0.375 0.321,0.78 0.499,1.161 0.2,0.428 0.554,0.724 0.739,1.132 0.194,0.43 0.55,0.711 0.881,0.996 0.535,0.461 1.127,0.859 1.695,1.283 0.832,0.093 1.501,0.722 2.362,0.723 0.244,0.249 0.596,0.05 0.853,0.198 0.296,0.168 0.613,0.012 0.897,0.097 0.813,0.243 1.641,0.111 2.461,0.132 0.702,0.018 1.389,-0.237 2.099,-0.139 0.269,-0.186 0.62,-0.048 0.865,-0.167 0.295,-0.144 0.639,0 0.859,-0.172 0.27,-0.212 0.593,0.037 0.862,-0.217 C -1.803,0.79 -1.44,1.006 -1.234,0.766 -0.811,0.884 -0.527,0.491 -0.132,0.462 0.114,0.444 0.158,0.211 0,0 m -24.735,-19.868 h 28.8 V 8.933 h -28.8 z"
             style="fill:#007f00;fill-opacity:1;fill-rule:nonzero;stroke:none"
             id="path4330"
             inkscape:connector-curvature="0" /></g><g
           id="g4332"
           transform="translate(179.6698,48.1748)"><path
             d="m 0,0 c -0.332,-0.602 -0.77,-1.388 -1.734,-1.216 -0.452,0.08 -0.841,-0.265 -1.36,-0.044 -0.441,0.19 -1.028,0.039 -1.656,0.039 0,-1.526 0.058,-2.919 -0.02,-4.302 -0.057,-1.006 0.291,-1.88 0.633,-2.766 0.078,-0.201 0.289,-0.349 0.255,-0.615 -0.025,-0.191 0,-0.388 -0.284,-0.382 -0.287,0.007 -0.574,0.002 -0.862,0.002 -0.287,0 -0.589,0.055 -0.859,-0.014 -0.343,-0.089 -0.716,-0.506 -1.008,-0.242 -0.368,0.333 -0.094,0.897 -0.163,1.355 -0.046,0.312 0.312,0.414 0.307,0.745 -0.032,1.819 -0.045,3.641 0.008,5.461 0.012,0.387 -0.302,0.536 -0.349,0.881 -0.053,0.391 -0.48,0.466 -0.945,0.177 -1.094,-0.679 -2.296,-0.651 -3.495,-0.573 -0.618,0.039 -1.064,0.474 -1.491,0.905 -0.468,0.471 -0.504,0.937 -0.142,1.485 0.09,0.136 0.064,0.362 0.059,0.546 -0.013,0.44 0.169,0.699 0.611,0.803 0.165,0.039 0.295,0.237 0.46,0.269 0.607,0.115 0.708,0.518 0.661,1.038 -0.064,0.709 0.032,1.373 0.518,1.941 0.604,0.709 1.252,1.276 2.294,1.071 0.457,-0.088 0.85,0.057 0.93,0.605 0.057,0.393 0.504,0.487 0.628,0.896 0.077,0.256 0.562,0.483 1.004,0.518 2.01,0.159 2.178,0.108 3.61,-1.362 0.822,-0.844 1.278,-1.918 1.333,-3.024 0.044,-0.896 0.25,-1.655 0.815,-2.259 C 0.354,1.303 0.313,0.565 0,0 m -6.138,16.431 -14.4,-8.314 V -8.511 l 14.4,-8.313 14.4,8.313 V 8.117 Z"
             style="fill:#007f00;fill-opacity:1;fill-rule:nonzero;stroke:none"
             id="path4334"
             inkscape:connector-curvature="0" /></g><g
           id="g4336"
           transform="translate(316.2738,41.0381)"><path
             d="m 0,0 -23.76,-15.12 12.387,18.747 -6.48,10.8 23.76,15.12 L -7.2,10.801 Z m -37.727,-21.586 h 57.601 v 57.6 h -57.601 z"
             style="fill:#007f00;fill-opacity:1;fill-rule:nonzero;stroke:none"
             id="path4338"
             inkscape:connector-curvature="0" /></g><g
           id="g4340"
           transform="translate(490.2758,25.9453)"><path
             d="M 0,0 -0.25,19 -6.028,22.405 -1.125,45 0.375,25.875 5.491,22.5 Z m -13.68,0 -0.25,19 -5.779,3.405 4.904,22.595 1.5,-19.125 5.117,-3.375 z m -13.68,0 -0.25,19 -5.779,3.405 4.904,22.595 1.5,-19.125 5.117,-3.375 z m -15.343,-6.3 h 57.6 v 57.6 h -57.6 z"
             style="fill:#007f00;fill-opacity:1;fill-rule:nonzero;stroke:none"
             id="path4342"
             inkscape:connector-curvature="0" /></g><g
           id="g4344"
           transform="translate(547.5814,37.1953)"><path
             d="M 0,0 -0.125,9.5 -3.014,11.203 -0.562,22.5 0.187,12.938 2.746,11.25 Z m -6.84,0 -0.125,9.5 -2.889,1.703 2.452,11.297 0.75,-9.562 2.558,-1.688 z m -6.84,0 -0.125,9.5 -2.889,1.703 2.452,11.297 0.75,-9.562 2.558,-1.688 z m -7.672,-3.149 h 28.8 v 28.8 h -28.8 z"
             style="fill:#007f00;fill-opacity:1;fill-rule:nonzero;stroke:none"
             id="path4346"
             inkscape:connector-curvature="0" /></g><g
           id="g4348"
           transform="translate(155.5331,47.8799)"><path
             d="M 0,0 -10.499,4.878 -8.537,1.5 H -18 v -3 h 9.463 l -1.962,-3.378 z"
             style="fill:#007f00;fill-opacity:1;fill-rule:nonzero;stroke:none"
             id="path4350"
             inkscape:connector-curvature="0" /></g></g></g><text
       transform="scale(1,-1)"
       style="font-variant:normal;font-weight:600;font-stretch:normal;font-size:24.38055992px;font-family:'Fira Sans SemiBold';-inkscape-font-specification:FiraSans-SemiBold;writing-mode:lr-tb;fill:#007f00;fill-opacity:1;fill-rule:nonzero;stroke:none;stroke-width:1.01585674"
       id="text4354"
       x="517.41583"
       y="-39.509308"><tspan
         x="517.41583"
         y="-39.509308"
         id="tspan4352"
         style="stroke-width:1.01585674">8</tspan></text>
<g
       id="g4356"
       transform="scale(1.0158567)"><g
         id="g4358"
         clip-path="url(#clipPath4362)"><g
           id="g4364"
           transform="translate(576.7338,47.8799)"><path
             d="M 0,0 -10.5,4.878 -8.538,1.5 H -18 v -3 h 9.462 L -10.5,-4.878 Z"
             style="fill:#007f00;fill-opacity:1;fill-rule:nonzero;stroke:none"
             id="path4366"
             inkscape:connector-curvature="0" /></g><g
           id="g4368"
           transform="translate(436.7719,40.623)"><path
             d="m 0,0 -14.451,10.734 0.039,-7.186 -33.12,-0.143 0.025,-7.2 33.12,0.143 0.039,-7.213 z"
             style="fill:#007f00;fill-opacity:1;fill-rule:nonzero;stroke:none"
             id="path4370"
             inkscape:connector-curvature="0" /></g><path
           d="M 613,1 H 1 v 381.6 h 612 z"
           style="fill:none;stroke:#000000;stroke-width:2;stroke-linecap:butt;stroke-linejoin:miter;stroke-miterlimit:10;stroke-dasharray:none;stroke-opacity:1"
           id="path4372"
           inkscape:connector-curvature="0" /></g></g><text
       transform="scale(1,-1)"
       style="font-variant:normal;font-weight:600;font-stretch:normal;font-size:18.28542137px;font-family:'Fira Sans SemiBold';-inkscape-font-specification:FiraSans-SemiBold;writing-mode:lr-tb;fill:#007f00;fill-opacity:1;fill-rule:nonzero;stroke:none;stroke-width:1.01585674"
       id="text4382"
       x="460.97128"
       y="-185.79268"><tspan
         x="460.97128 485.49203 508.38538 531.77246 554.79376"
         y="-185.79268"
         sodipodi:role="line"
         id="tspan4374"
         style="stroke-width:1.01585674">01234</tspan><tspan
         x="472.78366 495.93301 520.19775 542.5791 566.18561"
         y="-217.97502"
         sodipodi:role="line"
         id="tspan4376"
         style="stroke-width:1.01585674">56789</tspan><tspan
         x="583.70306 592.0412"
         y="-196.76393"
         sodipodi:role="line"
         id="tspan4378"
         style="stroke-width:1.01585674">10</tspan><tspan
         x="583.19104 592.55316"
         y="-240.64894"
         sodipodi:role="line"
         id="tspan4380"
         style="stroke-width:1.01585674">20</tspan></text>
<g
       id="g4384"
       transform="scale(1.0158567)"><g
         id="g4386"
         clip-path="url(#clipPath4390)"><g
           id="g4392"
           transform="translate(112.8578,293.1953)"><path
             d="m 0,0 v -3.204 h 4.379 c 0.221,0.54 0.123,1.074 0.136,1.6 0.012,0.533 0.003,1.067 0.003,1.604 z m -68.017,-3.222 h 4.37 v 3.206 h -4.52 c 0,-0.887 0.009,-1.75 -0.005,-2.611 -0.004,-0.219 0.063,-0.401 0.155,-0.595 M 65.131,5.391 V -8.507 h 4.58 l 0.139,0.138 V 5.256 c -0.043,0.042 -0.081,0.08 -0.136,0.135 z M -1.004,-8.511 V 1.994 c 0.067,0.067 0.118,0.117 0.186,0.186 h 6.821 c 0.4,1.068 0.685,2.156 1.122,3.221 H -5.589 C -5.633,5.357 -5.671,5.319 -5.743,5.248 c 0,-4.36 0.001,-8.713 -10e-4,-13.065 0,-0.245 -0.012,-0.487 0.152,-0.694 z M -76.301,5.391 H -89.55 c 0,-1.059 -0.001,-2.1 0,-3.141 0,-0.016 0.01,-0.033 0.02,-0.045 0.01,-0.014 0.026,-0.024 0.04,-0.037 h 4.099 c 0.052,-0.052 0.103,-0.103 0.172,-0.171 V -8.51 h 4.591 c 0.038,0.037 0.076,0.075 0.169,0.168 V 2.172 h 4.198 c -0.023,0.434 0.051,0.845 0.088,1.257 0.056,0.605 0.014,1.219 0.014,1.813 -0.062,0.066 -0.112,0.118 -0.142,0.149 m 7.309,-10.657 c -0.015,0.01 -0.027,0.025 -0.021,0.019 v 7.416 c 2.138,0 4.258,0 6.378,10e-4 0.016,0 0.033,0.009 0.047,0.017 0.015,0.009 0.027,0.023 0.019,0.016 V 5.401 H -73.766 V -8.497 h 11.198 v 3.214 c -2.137,0 -4.257,0 -6.377,0.001 -0.016,0 -0.034,0.008 -0.047,0.016 m 47.286,-3.076 c 0.316,0.571 0.654,1.132 0.947,1.714 0.449,0.892 0.888,1.79 1.289,2.705 0.124,0.283 0.317,0.511 0.448,0.785 0.468,0.976 0.955,1.944 1.437,2.913 0.061,0.121 0.14,0.233 0.224,0.371 0.545,-1.101 1.077,-2.173 1.604,-3.248 0.048,-0.096 0.06,-0.21 0.098,-0.348 h -2.344 c -0.058,-0.056 -0.109,-0.088 -0.132,-0.134 -0.407,-0.82 -0.804,-1.646 -1.22,-2.462 -0.093,-0.182 -0.149,-0.342 -0.049,-0.549 H -14 c 0.357,-0.658 0.7,-1.29 1.037,-1.911 1.955,-0.073 5.487,-0.045 5.96,0.052 -0.322,0.596 -0.641,1.183 -0.955,1.771 -0.071,0.132 -0.108,0.286 -0.196,0.403 -0.336,0.447 -0.557,0.958 -0.821,1.444 -0.263,0.483 -0.525,0.971 -0.797,1.447 -0.308,0.538 -0.598,1.09 -0.927,1.618 -0.255,0.408 -0.407,0.881 -0.668,1.285 -0.41,0.636 -0.728,1.319 -1.101,1.974 -0.223,0.393 -0.426,0.798 -0.655,1.184 -0.325,0.549 -0.614,1.117 -0.94,1.664 -0.222,0.372 -0.377,0.795 -0.699,1.074 h -4.007 c -0.103,-0.226 -0.165,-0.443 -0.288,-0.616 -0.333,-0.468 -0.56,-0.993 -0.836,-1.491 -0.26,-0.468 -0.505,-0.947 -0.779,-1.401 -0.459,-0.763 -0.856,-1.559 -1.313,-2.321 -0.3,-0.501 -0.517,-1.052 -0.829,-1.543 -0.467,-0.739 -0.837,-1.53 -1.289,-2.275 -0.374,-0.617 -0.723,-1.25 -1.062,-1.883 -0.426,-0.796 -0.887,-1.577 -1.263,-2.385 h 4.678 c 0.018,0.067 0.021,0.12 0.044,0.163 m 119.353,7.799 c -0.057,-0.136 -0.108,-0.259 -0.132,-0.316 0.199,-0.856 0.033,-1.659 0.12,-2.467 h 3.044 l 0.157,-0.157 c -0.032,-0.085 -0.067,-0.16 -0.088,-0.239 -0.022,-0.082 -0.015,-0.174 -0.046,-0.251 -0.278,-0.669 -0.67,-0.974 -1.461,-0.981 -1.656,-0.015 -3.311,-0.001 -4.967,-0.006 -0.98,-0.003 -1.632,0.708 -1.629,1.61 0.003,1.259 0.022,2.519 -0.01,3.778 -0.013,0.522 0.119,0.929 0.535,1.241 0.028,0.021 0.054,0.046 0.08,0.069 0.421,0.199 0.869,0.102 1.305,0.104 1.619,0.009 3.239,0.004 4.859,0.004 h 4.811 c -0.138,0.67 -0.395,1.241 -0.755,1.738 -0.496,0.686 -1.161,1.172 -1.912,1.492 -0.469,0.2 -0.966,0.33 -1.482,0.331 C 97.881,5.412 95.686,5.415 93.49,5.405 93.001,5.403 92.516,5.431 92.02,5.316 91.278,5.145 90.606,4.871 90.037,4.364 89.85,4.197 89.686,4.002 89.5,3.833 89.176,3.538 88.931,3.17 88.793,2.776 88.627,2.304 88.429,1.828 88.431,1.304 c 0.007,-1.619 -0.004,-3.239 0.007,-4.858 0.003,-0.454 -0.038,-0.904 0.084,-1.364 0.082,-0.311 0.169,-0.612 0.291,-0.909 0.261,-0.638 0.695,-1.14 1.178,-1.62 0.313,-0.311 0.684,-0.537 1.064,-0.701 0.524,-0.226 1.09,-0.376 1.68,-0.376 3.689,0.003 7.378,0.002 11.067,0.002 h 0.486 v 7.979 z M -50.676,1.25 c -0.024,0.164 -0.096,0.319 -0.147,0.478 -0.089,0.089 -0.181,0.175 -0.267,0.268 -0.233,0.253 -0.556,0.368 -0.865,0.377 -1.096,0.032 -2.194,0.015 -3.292,0.007 -0.092,0 -0.184,-0.072 -0.298,-0.12 0.051,-0.062 0.107,-0.097 0.107,-0.133 0.004,-0.804 0.003,-1.608 0.003,-2.427 h 3.518 c 0.754,0.148 1.031,0.549 1.247,1.069 0,0.123 0.019,0.305 -0.006,0.481 m 0.979,-9.652 c -0.103,0.208 -0.222,0.428 -0.324,0.658 -0.14,0.319 -0.275,0.641 -0.396,0.969 -0.213,0.577 -0.482,1.13 -0.689,1.711 -0.196,0.548 -0.538,1.008 -0.997,1.363 -0.165,0.127 -0.387,0.208 -0.595,0.246 -0.339,0.062 -0.688,0.07 -0.986,0.097 -0.329,0.39 -0.649,0.73 -0.923,1.105 -0.259,0.354 -0.478,0.736 -0.832,1.015 -0.127,-0.148 0.009,-0.156 0.013,-0.209 0.008,-0.107 0.004,-0.216 0.004,-0.323 0,-2.051 -0.004,-4.101 0.005,-6.152 0.001,-0.219 -0.064,-0.401 -0.155,-0.59 h -4.586 V 5.41 h 0.499 c 3.4,0 6.8,0.009 10.199,-0.007 1.027,-0.005 1.913,-0.394 2.671,-1.109 0.544,-0.513 0.829,-1.151 1.06,-1.831 0.027,-0.08 0.024,-0.172 0.025,-0.259 0.003,-0.252 0.005,-0.504 10e-4,-0.755 -0.015,-0.931 -0.358,-1.713 -0.996,-2.398 -0.484,-0.518 -1.051,-0.873 -1.726,-1.133 0.27,-0.229 0.529,-0.43 0.766,-0.654 0.515,-0.489 0.848,-1.107 1.208,-1.71 0.369,-0.619 0.681,-1.269 1.06,-1.885 0.347,-0.564 0.588,-1.193 0.877,-1.793 0.036,-0.073 0.085,-0.14 0.134,-0.219 -0.439,-0.1 -2.929,-0.126 -5.317,-0.059 m 85.198,9.364 c 0.034,0.129 -0.066,0.289 -0.094,0.437 -0.061,0.327 -0.46,0.836 -0.763,0.867 -0.275,0.027 -0.528,0.137 -0.816,0.13 C 32.824,2.37 31.82,2.385 30.815,2.385 l -0.15,-0.151 v -2.548 c 1.244,0 2.478,-0.021 3.71,0.014 0.309,0.009 0.631,0.196 0.807,0.484 0.145,0.237 0.251,0.508 0.319,0.778 m 5.945,-8.67 c 0.127,-0.21 0.237,-0.43 0.376,-0.687 h -5.401 c -0.045,0.134 -0.087,0.296 -0.154,0.446 -0.136,0.304 -0.354,0.59 -0.411,0.906 -0.062,0.343 -0.28,0.603 -0.365,0.936 -0.111,0.443 -0.414,0.834 -0.572,1.27 -0.14,0.389 -0.39,0.675 -0.652,0.974 -0.222,0.253 -0.532,0.38 -0.805,0.391 -0.353,0.016 -0.674,0.216 -1.034,0.12 -0.573,0.732 -1.138,1.454 -1.703,2.175 -0.024,-0.016 -0.039,-0.023 -0.049,-0.034 -0.01,-0.013 -0.022,-0.03 -0.022,-0.045 -0.001,-2.409 -0.001,-4.818 -0.001,-7.246 h -4.611 c -0.027,0.028 -0.075,0.081 -0.13,0.141 V 5.41 h 0.321 c 3.491,0 6.981,-0.002 10.472,10e-4 0.361,0.001 1.395,-0.223 1.801,-0.471 0.434,-0.264 0.84,-0.56 1.157,-1 0.283,-0.394 0.509,-0.794 0.665,-1.242 0.2,-0.574 0.156,-1.139 0.057,-1.782 -0.148,-0.962 -0.666,-1.682 -1.359,-2.298 -0.339,-0.301 -0.755,-0.498 -1.18,-0.662 -0.027,-0.011 -0.043,-0.049 -0.093,-0.109 0.091,-0.062 0.176,-0.127 0.267,-0.181 0.474,-0.282 0.761,-0.724 1.072,-1.163 0.422,-0.595 0.727,-1.251 1.106,-1.864 0.468,-0.758 0.792,-1.586 1.248,-2.347 m -79.899,9.634 c 0.136,-0.205 0.087,-0.409 0.091,-0.612 0.011,-0.536 0.004,-1.071 0.004,-1.617 h 3.708 c 0.145,0.077 0.262,0.143 0.381,0.204 0.225,0.113 0.386,0.279 0.48,0.517 0.101,0.255 0.251,0.514 0.173,0.786 -0.092,0.322 -0.19,0.666 -0.494,0.872 -0.269,0.183 -0.564,0.307 -0.897,0.309 -0.36,0.002 -0.72,0 -1.08,0 h -2.191 c -0.235,-0.141 -0.243,-0.356 -0.175,-0.459 m -4.765,-9.15 c -10e-4,4.157 0,8.314 0,12.472 0.076,0.076 0.114,0.114 0.161,0.162 h 8.463 c 0.702,0 1.404,-0.008 2.106,10e-4 0.881,0.011 1.673,-0.278 2.379,-0.768 0.386,-0.267 0.687,-0.648 0.932,-1.061 0.345,-0.582 0.578,-1.191 0.54,-1.883 -0.01,-0.197 0.012,-0.397 -0.006,-0.593 -0.017,-0.185 -0.035,-0.381 -0.11,-0.547 -0.184,-0.41 -0.292,-0.868 -0.604,-1.205 -0.448,-0.486 -0.901,-0.975 -1.54,-1.228 -0.152,-0.061 -0.293,-0.148 -0.472,-0.24 0.211,-0.157 0.419,-0.286 0.598,-0.448 0.429,-0.385 0.756,-0.853 1.054,-1.343 0.503,-0.831 0.937,-1.699 1.41,-2.547 0.327,-0.584 0.609,-1.19 0.934,-1.773 0.023,-0.041 0.023,-0.095 0.038,-0.168 h -5.294 c -0.06,0.123 -0.15,0.284 -0.22,0.452 -0.222,0.538 -0.498,1.051 -0.66,1.617 -0.105,0.364 -0.317,0.695 -0.476,1.044 -0.061,0.135 -0.106,0.28 -0.162,0.418 -0.213,0.528 -0.544,0.958 -1.056,1.225 -0.209,0.109 -0.429,0.186 -0.676,0.197 -0.273,0.012 -0.544,0.072 -0.781,0.107 -0.214,0.241 -0.421,0.455 -0.604,0.687 -0.191,0.24 -0.328,0.531 -0.547,0.739 -0.209,0.198 -0.251,0.555 -0.629,0.643 -0.01,-0.136 -0.069,-0.289 -0.017,-0.361 0.143,-0.198 0.096,-0.406 0.096,-0.61 0.005,-1.35 -0.024,-2.701 0.013,-4.049 0.021,-0.747 -0.191,-1.469 -0.11,-2.225 h -4.611 c -0.202,0.408 -0.148,0.85 -0.149,1.285 m 59.752,2.767 c 0.224,0.12 0.496,0.054 0.753,0.127 0.591,0.171 1.128,0.423 1.52,0.88 0.402,0.471 0.583,1.06 0.612,1.683 0.013,0.269 -0.02,0.542 0.008,0.809 0.04,0.378 -0.203,0.682 -0.237,1.037 -0.604,0.947 -1.482,1.461 -2.586,1.54 -0.7,0.05 -1.412,0.064 -2.157,-0.153 C 14.132,1.304 13.737,1.161 13.405,0.882 13.1,0.625 12.886,0.327 12.724,-0.028 c -0.209,-0.455 -0.236,-0.933 -0.216,-1.421 0.01,-0.234 -0.01,-0.468 0.006,-0.701 0.008,-0.113 0.065,-0.223 0.104,-0.333 0.172,-0.489 0.386,-0.968 0.813,-1.274 0.321,-0.231 0.691,-0.42 1.067,-0.541 0.401,-0.129 0.833,-0.186 1.255,-0.217 0.253,-0.019 0.519,-0.08 0.781,0.058 m 0.244,-4.282 c -0.539,0 -1.079,-0.01 -1.618,0.006 -0.22,0.005 -0.439,0.066 -0.658,0.103 -0.218,0.037 -0.465,-0.098 -0.656,0.108 -0.584,-0.069 -1.099,0.217 -1.643,0.34 -0.43,0.098 -0.848,0.307 -1.232,0.532 -0.597,0.349 -1.176,0.737 -1.633,1.273 -0.553,0.648 -0.995,1.366 -1.249,2.179 -0.15,0.482 -0.369,0.956 -0.332,1.483 -0.238,0.749 -0.1,1.519 -0.09,2.275 0.007,0.57 0.145,1.156 0.334,1.69 0.204,0.575 0.462,1.146 0.851,1.645 0.69,0.887 1.476,1.641 2.527,2.091 0.665,0.285 1.332,0.533 2.054,0.653 0.42,0.07 0.841,0.144 1.262,0.192 0.427,0.048 0.863,0.01 1.294,0.01 0.306,0 0.612,0.005 0.918,0 1.015,-0.019 2.007,-0.216 2.955,-0.552 0.916,-0.324 1.757,-0.796 2.453,-1.515 0.51,-0.526 0.964,-1.084 1.284,-1.739 0.223,-0.458 0.513,-1.647 0.592,-2.024 0.123,-0.583 0.078,-1.16 0.082,-1.74 0.002,-0.256 0.088,-0.52 -0.068,-0.779 -0.122,-0.204 0.069,-0.494 -0.14,-0.696 -0.032,-0.726 -0.35,-1.36 -0.654,-1.995 C 23.272,-5.488 23.097,-5.764 22.867,-6 22.749,-6.122 22.673,-6.285 22.557,-6.409 22.153,-6.842 21.671,-7.171 21.17,-7.484 20.511,-7.896 19.78,-8.126 19.061,-8.387 18.809,-8.478 18.523,-8.478 18.253,-8.523 18.052,-8.557 17.853,-8.605 17.65,-8.627 17.446,-8.65 17.235,-8.595 17.043,-8.732 16.983,-8.774 16.868,-8.739 16.778,-8.739 M 86.567,5.029 C 86.525,5.158 86.484,5.284 86.449,5.391 H 81.881 L 81.73,5.24 v -6.853 c -0.215,0.279 -0.423,0.509 -0.588,0.766 -0.554,0.86 -1.144,1.694 -1.757,2.512 C 79.254,1.839 79.162,2.042 79.037,2.221 78.645,2.78 78.246,3.333 77.85,3.89 77.482,4.406 77.116,4.923 76.787,5.388 H 72.031 V -8.498 h 4.739 c 0,2.328 0,4.63 0.001,6.934 0,0.013 0.019,0.029 0.032,0.04 0.012,0.009 0.029,0.014 0.08,0.039 0.211,-0.287 0.435,-0.575 0.641,-0.876 0.487,-0.715 0.934,-1.459 1.458,-2.146 0.384,-0.504 0.714,-1.043 1.096,-1.548 0.402,-0.532 0.753,-1.102 1.179,-1.619 0.211,-0.258 0.363,-0.564 0.528,-0.827 h 4.705 c 0,0.254 -0.014,0.488 0.004,0.719 0.017,0.22 0.098,0.438 0.099,0.657 0.007,3.672 0.005,7.343 0.002,11.015 -0.001,0.116 -0.05,0.232 -0.068,0.349 -0.041,0.271 -0.108,0.545 0.04,0.79 M 47.934,-8.363 v 5.241 c 0,0.126 0.004,0.252 -0.003,0.378 -0.003,0.054 -0.141,0.061 -0.028,0.196 0.119,-0.139 0.259,-0.255 0.338,-0.404 0.396,-0.743 0.884,-1.433 1.287,-2.167 0.527,-0.957 1.178,-1.838 1.664,-2.818 0.112,-0.225 0.313,-0.405 0.448,-0.575 h 2.542 c 1.201,1.981 2.403,3.962 3.604,5.943 l 0.081,-0.027 v -5.917 h 4.736 V 5.399 H 57.868 C 57.764,5.233 57.647,5.065 57.547,4.887 57.343,4.523 57.157,4.148 56.946,3.787 56.624,3.235 56.255,2.708 55.964,2.141 c -0.29,-0.567 -0.637,-1.1 -0.943,-1.658 -0.289,-0.527 -0.604,-1.049 -0.924,-1.564 -0.413,-0.665 -0.774,-1.362 -1.175,-2.077 -0.075,0.061 -0.171,0.1 -0.199,0.167 -0.15,0.36 -0.405,0.662 -0.567,1.008 -0.271,0.579 -0.631,1.105 -0.942,1.658 -0.477,0.847 -0.975,1.683 -1.449,2.533 -0.294,0.526 -0.629,1.029 -0.91,1.566 -0.295,0.563 -0.654,1.093 -0.969,1.612 H 43.195 V -8.509 h 4.583 c 0.054,0.05 0.106,0.099 0.156,0.146 m 14.311,-16.259 c -0.479,1.013 -1.253,1.776 -2.122,2.464 -0.513,0.407 -1.106,0.64 -1.693,0.87 -0.284,0.112 -0.617,0.201 -0.93,0.223 -0.348,0.024 -0.69,0.104 -1.034,0.114 -0.809,0.025 -1.62,0.026 -2.429,0.003 -0.814,-0.023 -1.624,0.037 -2.443,-0.078 -0.615,-0.087 -1.271,-0.12 -1.898,0.103 -0.069,0.069 -0.14,0.152 -0.223,0.22 -0.096,0.079 -0.202,0.146 -0.216,0.156 -0.138,0.611 -0.138,0.611 0.123,1.213 0.696,0.387 0.749,0.337 1.427,0.336 3.383,-0.002 6.767,-10e-4 10.151,-10e-4 h 0.461 v 5.508 h -0.544 c -3.654,0 -7.308,0.003 -10.961,-0.004 -0.382,-0.001 -0.758,10e-4 -1.148,-0.083 -0.562,-0.12 -1.139,-0.159 -1.652,-0.453 -0.404,-10e-4 -0.673,-0.297 -0.99,-0.475 -0.327,-0.183 -0.627,-0.427 -0.904,-0.682 -0.309,-0.286 -0.588,-0.602 -0.855,-0.935 -0.72,-0.896 -1.119,-1.937 -1.265,-3.036 -0.122,-0.922 -0.065,-1.868 0.282,-2.783 0.245,-0.646 0.53,-1.264 0.886,-1.847 0.389,-0.637 0.961,-1.12 1.552,-1.554 0.428,-0.314 0.918,-0.555 1.408,-0.765 0.398,-0.171 0.838,-0.289 1.263,-0.323 0.489,-0.039 0.967,-0.154 1.467,-0.139 1.168,0.036 2.339,0.006 3.509,0.016 0.274,0.002 0.562,-0.081 0.823,0.098 0.042,0.03 0.162,0.015 0.197,-0.023 0.12,-0.136 0.268,-0.073 0.402,-0.077 0.36,-0.008 0.72,-0.002 1.08,-0.003 0.344,-10e-4 0.547,-0.174 0.726,-0.472 0.16,-0.267 0.037,-0.52 0.11,-0.786 -0.167,-0.199 -0.332,-0.398 -0.52,-0.623 -0.399,-0.02 -0.798,-0.06 -1.197,-0.06 -3.726,-0.004 -7.452,-0.002 -11.177,-0.003 -0.136,0 -0.272,-0.013 -0.406,-0.02 0,-0.65 0.029,-1.263 -0.005,-1.873 -0.063,-1.124 0.167,-2.233 0.11,-3.342 0.051,-0.05 0.089,-0.088 0.181,-0.18 0.441,0.122 0.897,-0.181 1.354,0.014 0.031,0.013 0.084,0.017 0.105,-10e-4 0.219,-0.173 0.475,-0.102 0.713,-0.103 3.276,-0.004 6.552,0.003 9.828,-0.007 0.736,-0.002 1.461,0.055 2.178,0.22 0.643,0.147 1.225,0.429 1.795,0.753 0.56,0.319 0.986,0.784 1.435,1.227 0.58,0.572 0.977,1.253 1.266,2.013 0.256,0.672 0.368,1.37 0.471,2.07 0.05,0.34 -0.045,0.691 -0.079,1.036 -0.07,0.74 -0.302,1.418 -0.612,2.074 m -50.279,-7.461 c -0.202,0.348 -0.359,0.724 -0.571,1.057 -0.336,0.526 -0.601,1.089 -0.93,1.617 -0.255,0.408 -0.399,0.889 -0.672,1.282 -0.357,0.515 -0.598,1.091 -0.937,1.614 -0.225,0.349 -0.354,0.761 -0.586,1.103 -0.352,0.517 -0.608,1.085 -0.937,1.613 -0.254,0.409 -0.404,0.883 -0.666,1.286 -0.532,0.818 -0.947,1.699 -1.443,2.535 -0.223,0.374 -0.396,0.78 -0.624,1.143 -0.474,0.755 -0.855,1.559 -1.318,2.319 -0.295,0.485 -0.54,1 -0.818,1.495 -0.248,0.44 -0.51,0.872 -0.763,1.303 h -6.11 c -0.283,-0.503 -0.57,-0.995 -0.839,-1.497 -0.379,-0.706 -0.783,-1.4 -1.166,-2.105 -0.182,-0.337 -0.344,-0.694 -0.559,-1.011 -0.312,-0.461 -0.549,-0.962 -0.817,-1.446 -0.266,-0.481 -0.527,-0.969 -0.796,-1.448 -0.287,-0.511 -0.56,-1.032 -0.865,-1.533 -0.236,-0.387 -0.424,-0.801 -0.658,-1.183 -0.291,-0.473 -0.542,-0.966 -0.81,-1.449 -0.268,-0.482 -0.518,-0.979 -0.798,-1.447 -0.457,-0.764 -0.834,-1.572 -1.317,-2.319 -0.328,-0.508 -0.619,-1.044 -0.895,-1.575 -0.462,-0.89 -1.004,-1.736 -1.43,-2.644 -0.162,-0.346 -0.379,-0.666 -0.597,-1.044 h 7.053 c 0.037,0.037 0.089,0.068 0.111,0.114 1.037,2.091 2.047,4.196 3.156,6.251 0.245,0.454 0.469,0.921 0.7,1.383 0.32,0.641 0.663,1.273 0.945,1.93 0.164,0.383 0.336,0.772 0.538,1.123 0.268,0.467 0.51,0.94 0.738,1.426 0.099,0.212 0.235,0.408 0.357,0.617 0.069,-0.069 0.138,-0.111 0.168,-0.172 0.779,-1.567 1.556,-3.134 2.328,-4.704 0.042,-0.085 0.047,-0.189 0.075,-0.31 h -3.436 c -0.169,-0.264 -0.326,-0.469 -0.439,-0.695 -0.521,-1.043 -1.006,-2.104 -1.553,-3.133 -0.167,-0.314 -0.223,-0.597 -0.189,-0.945 h 8.056 c 0.158,-0.239 0.328,-0.454 0.452,-0.694 0.338,-0.65 0.655,-1.312 0.982,-1.968 0.045,-0.09 0.099,-0.174 0.13,-0.227 h 9.041 c -0.075,0.15 -0.137,0.283 -0.208,0.412 -0.359,0.644 -0.712,1.29 -1.083,1.926 m 18.208,12.638 c -0.309,0.754 -1.085,1.209 -1.799,1.205 -1.602,-0.008 -3.204,-0.003 -4.805,-0.003 h -0.463 v -3.848 c 0.053,-0.052 0.091,-0.09 0.129,-0.128 0.015,-0.007 0.031,-0.019 0.046,-0.019 1.638,-0.001 3.276,-0.012 4.913,0.006 0.597,0.006 1.133,0.197 1.563,0.656 0.512,0.546 0.724,1.378 0.416,2.131 m 8.8,-13.272 c 0.264,-0.534 0.573,-1.047 0.878,-1.599 H 31.74 c -0.15,0.33 -0.3,0.645 -0.437,0.967 -0.116,0.275 -0.211,0.56 -0.327,0.836 -0.137,0.321 -0.352,0.625 -0.413,0.958 -0.062,0.345 -0.373,0.579 -0.341,0.942 -0.387,0.555 -0.506,1.23 -0.827,1.818 -0.253,0.462 -0.49,0.936 -0.775,1.188 -0.498,0.44 -1.081,0.684 -1.75,0.728 -0.184,0.012 -0.365,0.083 -0.549,0.1 -0.196,0.018 -0.393,0.005 -0.551,0.005 -0.878,1.102 -1.737,2.18 -2.671,3.352 v -11.009 h -6.983 c -0.168,0.207 -0.152,0.452 -0.151,0.695 10e-4,6.657 0,13.314 0,20.009 0.134,0.007 0.27,0.019 0.406,0.019 5.325,10e-4 10.651,0.009 15.976,-0.008 0.607,-0.002 1.2,-0.154 1.787,-0.367 0.563,-0.206 1.069,-0.501 1.537,-0.838 0.36,-0.26 0.665,-0.62 0.95,-0.991 0.209,-0.273 0.395,-0.567 0.574,-0.852 0.245,-0.39 0.356,-0.858 0.48,-1.309 0.185,-0.68 0.124,-1.376 0.089,-2.06 -0.02,-0.407 -0.193,-0.812 -0.331,-1.206 -0.156,-0.445 -0.387,-0.85 -0.675,-1.234 -0.469,-0.625 -1.024,-1.15 -1.649,-1.611 -0.424,-0.314 -0.934,-0.44 -1.436,-0.699 0.139,-0.087 0.235,-0.191 0.373,-0.288 0.498,-0.351 0.951,-0.755 1.317,-1.265 0.219,-0.305 0.466,-0.596 0.671,-0.915 0.155,-0.24 0.312,-0.481 0.449,-0.731 0.315,-0.57 0.61,-1.152 0.927,-1.721 0.537,-0.963 1.074,-1.926 1.564,-2.914 m -65.096,18.999 h 7.077 v -20.714 h -7.018 c -0.031,0.222 -0.087,0.439 -0.087,0.656 -0.007,2.538 -0.004,5.076 -0.004,7.614 v 0.544 c -0.112,-0.085 -0.242,-0.252 -0.325,-0.392 -0.104,-0.174 -0.217,-0.342 -0.323,-0.515 -0.096,-0.157 -0.188,-0.318 -0.281,-0.477 -0.103,-0.174 -0.185,-0.364 -0.312,-0.517 -0.123,-0.148 -0.185,-0.321 -0.28,-0.478 -0.106,-0.172 -0.229,-0.332 -0.32,-0.517 -0.082,-0.166 -0.21,-0.308 -0.309,-0.466 -0.108,-0.171 -0.207,-0.347 -0.307,-0.521 -0.091,-0.16 -0.153,-0.346 -0.274,-0.477 -0.133,-0.145 -0.201,-0.314 -0.295,-0.475 -0.102,-0.175 -0.215,-0.343 -0.322,-0.515 -0.099,-0.157 -0.197,-0.314 -0.292,-0.473 -0.104,-0.173 -0.206,-0.347 -0.306,-0.521 -0.091,-0.161 -0.175,-0.325 -0.269,-0.483 -0.103,-0.174 -0.211,-0.346 -0.322,-0.514 -0.104,-0.156 -0.221,-0.304 -0.322,-0.461 -0.109,-0.17 -0.206,-0.347 -0.309,-0.52 -0.094,-0.158 -0.188,-0.316 -0.294,-0.493 h -3.922 c -0.168,0.259 -0.364,0.552 -0.551,0.852 -0.385,0.614 -0.769,1.228 -1.143,1.849 -0.251,0.416 -0.477,0.847 -0.729,1.263 -0.349,0.577 -0.715,1.143 -1.066,1.719 -0.262,0.43 -0.503,0.873 -0.767,1.302 -0.362,0.59 -0.737,1.171 -1.104,1.757 -0.041,0.066 -0.071,0.139 -0.154,0.305 v -9.045 h -7.001 c -0.043,0.07 -0.111,0.137 -0.128,0.215 -0.023,0.103 -0.006,0.215 -0.006,0.323 v 19.979 0.184 h 7.133 c 0.194,-0.308 0.427,-0.661 0.642,-1.023 0.342,-0.578 0.673,-1.161 1.008,-1.743 0.134,-0.232 0.271,-0.462 0.396,-0.699 0.446,-0.845 0.94,-1.665 1.427,-2.483 0.414,-0.694 0.813,-1.401 1.25,-2.083 0.321,-0.501 0.581,-1.054 0.893,-1.569 0.358,-0.589 0.665,-1.208 1.063,-1.777 0.292,-0.416 0.482,-0.904 0.737,-1.398 0.096,0.082 0.19,0.125 0.218,0.193 0.248,0.611 0.657,1.129 0.964,1.706 0.293,0.548 0.634,1.07 0.949,1.606 0.169,0.289 0.319,0.59 0.494,0.875 0.513,0.829 0.971,1.69 1.473,2.525 0.335,0.557 0.669,1.121 0.979,1.697 0.294,0.547 0.669,1.053 0.939,1.611 0.278,0.575 0.674,1.078 0.936,1.663 0.143,0.32 0.37,0.603 0.564,0.911"
             style="fill:#007f00;fill-opacity:1;fill-rule:nonzero;stroke:none"
             id="path4394"
             inkscape:connector-curvature="0" /></g><g
           id="g4396"
           transform="translate(145.265,337.8779)"><path
             d="m 0,0 v -11.478 c 0,-1.9 1.525,-3.444 3.415,-3.491 V 3.492 C 1.525,3.445 0,1.901 0,0"
             style="fill:#007f00;fill-opacity:1;fill-rule:nonzero;stroke:none"
             id="path4398"
             inkscape:connector-curvature="0" /></g><g
           id="g4400"
           transform="translate(114.227,357.439)"><path
             d="m 0,0 h 11.478 c 1.923,0 3.487,1.56 3.498,3.481 H -3.499 C -3.488,1.56 -1.924,0 0,0"
             style="fill:#007f00;fill-opacity:1;fill-rule:nonzero;stroke:none"
             id="path4402"
             inkscape:connector-curvature="0" /></g><g
           id="g4404"
           transform="translate(94.6659,326.4004)"><path
             d="m 0,0 v 11.478 c 0,1.93 -1.57,3.5 -3.5,3.5 -0.03,0 -0.057,-0.008 -0.086,-0.008 V -3.492 c 0.029,0 0.056,-0.008 0.086,-0.008 1.93,0 3.5,1.57 3.5,3.5"
             style="fill:#007f00;fill-opacity:1;fill-rule:nonzero;stroke:none"
             id="path4406"
             inkscape:connector-curvature="0" /></g><g
           id="g4408"
           transform="translate(129.205,303.3394)"><path
             d="m 0,0 c 0,1.93 -1.57,3.5 -3.5,3.5 h -11.478 c -1.93,0 -3.501,-1.57 -3.501,-3.5 0,-0.007 0.002,-0.013 0.002,-0.02 H -0.002 C -0.002,-0.013 0,-0.007 0,0"
             style="fill:#007f00;fill-opacity:1;fill-rule:nonzero;stroke:none"
             id="path4410"
             inkscape:connector-curvature="0" /></g><g
           id="g4412"
           transform="translate(122.4711,316.0034)"><path
             d="m 0,0 c -6,0 -10.753,3.744 -12.193,10.897 h -2.976 v 3.312 l 2.592,0.192 c -0.048,0.432 -0.048,0.817 -0.048,1.248 0,0.432 0,0.817 0.048,1.248 h -2.592 v 3.265 l 2.976,0.24 c 1.488,7.153 6.337,11.233 12.721,11.233 2.881,0 5.761,-1.344 7.825,-3.744 L 4.417,24.099 c -1.201,1.199 -2.449,2.063 -4.129,2.063 -2.736,0 -4.608,-2.063 -5.376,-5.712 H 5.185 V 16.897 H -5.521 V 15.89 c 0,-0.481 0,-0.96 0.049,-1.393 h 8.737 v -3.6 h -8.257 c 0.864,-3.504 2.736,-5.424 5.424,-5.424 1.824,0 3.169,0.912 4.417,2.591 L 8.737,4.416 C 6.433,1.584 3.457,0 0,0 m 19.794,10.397 v 11.478 c 0,3.555 2.87,6.449 6.415,6.496 v 5.746 l -10.8,10.8 H 9.733 C 9.722,41.341 6.811,38.436 3.233,38.436 H -8.244 c -3.578,0 -6.489,2.905 -6.5,6.481 h -5.847 l -10.8,-10.8 v -5.746 c 0.029,0 0.057,0.004 0.085,0.004 3.585,0 6.501,-2.916 6.501,-6.5 V 10.397 c 0,-3.585 -2.916,-6.501 -6.501,-6.501 -0.028,0 -0.056,0.005 -0.085,0.005 v -5.784 l 10.8,-10.801 h 5.847 c 0,0.007 -10e-4,0.014 -10e-4,0.02 0,3.584 2.916,6.5 6.501,6.5 H 3.233 c 3.585,0 6.501,-2.916 6.501,-6.5 0,-0.006 -10e-4,-0.013 -10e-4,-0.02 h 5.676 l 10.8,10.801 v 5.784 c -3.545,0.046 -6.415,2.941 -6.415,6.496"
             style="fill:#007f00;fill-opacity:1;fill-rule:nonzero;stroke:none"
             id="path4414"
             inkscape:connector-curvature="0" /></g><g
           id="g4416"
           transform="translate(382.9525,343.4785)"><path
             d="m 0,0 c -0.307,-0.1 -0.358,0.248 -0.429,0.457 -0.291,0.858 -0.853,1.479 -1.597,1.974 -1.952,1.3 -4.206,0.578 -5.021,-1.626 -0.116,-0.314 -0.216,-0.637 -0.292,-0.963 -0.182,-0.79 -0.612,-1.29 -1.47,-1.317 -0.949,-0.029 -1.176,-0.558 -1.134,-1.434 0.096,-2.011 0.252,-4.021 0.383,-6.028 0.321,-4.878 0.218,-9.777 0.762,-14.645 0.133,-1.186 0.061,-2.395 0.071,-3.594 0.008,-0.881 -0.445,-1.339 -1.322,-1.345 -1.439,-0.012 -2.88,-0.042 -4.317,0.006 -1.216,0.041 -1.56,0.357 -1.537,1.585 0.032,1.723 0.206,3.444 0.306,5.167 0.159,2.68 0.335,5.358 0.45,8.04 0.143,3.4 0.254,6.803 0.335,10.205 0.044,1.82 -0.154,1.787 -1.917,2.091 -2.054,0.353 -4.047,-0.225 -6.073,-0.057 -1.523,0.126 -1.735,0.265 -1.776,1.794 -0.02,0.719 -0.003,1.439 -0.003,2.159 h 0.019 c 0,0.815 -0.013,1.631 0.003,2.446 0.02,0.931 0.514,1.429 1.447,1.409 1.417,-0.03 2.896,0.332 4.179,-0.62 0.266,-0.197 0.564,-0.172 0.798,0.03 0.854,0.734 1.882,0.613 2.882,0.614 3.551,0.006 7.104,-0.073 10.65,0.03 1.921,0.057 3.085,-0.763 3.805,-2.433 C -0.341,2.884 0.019,1.793 0.174,0.646 0.205,0.417 0.25,0.081 0,0 M -27.125,4.074 C -27.186,3.7 -27.128,3.307 -27.13,2.923 c -0.012,-4.276 0.295,-3.442 -3.091,-5.281 -1.119,-0.608 -1.624,-1.361 -1.535,-2.625 0.223,-3.206 0.289,-6.417 0.305,-9.632 0.008,-1.534 0.054,-3.068 0.115,-4.601 0.075,-1.457 0.171,-2.913 0.334,-4.366 0.076,-0.687 0.084,-1.383 0.079,-2.08 -0.002,-0.176 -0.004,-0.53 -0.006,-0.707 -0.002,-0.269 -0.005,-0.538 -0.003,-0.807 0.009,-0.881 -0.444,-1.339 -1.321,-1.345 -1.439,-0.012 -2.88,-0.042 -4.317,0.006 -1.216,0.041 -1.56,0.357 -1.537,1.585 0.003,0.187 0.019,0.374 0.027,0.561 0.011,0.251 0.036,0.751 0.05,1.002 0.063,1.201 0.159,2.402 0.229,3.604 0.005,0.08 0.01,0.159 0.015,0.24 0.198,5.617 0.194,11.241 0.603,16.85 0.052,0.709 -0.19,1.2 -0.759,1.582 -0.915,0.614 -1.799,1.279 -2.741,1.848 -0.825,0.5 -1.217,1.158 -1.198,2.123 0.029,1.535 0.033,3.071 0,4.606 -0.021,0.986 0.406,1.63 1.268,2.059 1.116,0.556 2.227,1.123 3.319,1.723 1.526,0.838 1.785,0.701 1.817,-1.058 0.024,-1.294 0.011,-2.59 0.055,-3.885 0.021,-0.571 0.277,-1.054 0.938,-1.068 0.683,-0.015 0.88,0.478 0.92,1.055 0.028,0.43 0.026,0.862 0.03,1.294 0.011,1.103 -0.008,2.208 0.033,3.31 0.032,0.854 0.459,1.112 1.239,0.69 0.885,-0.479 1.74,-1.038 2.669,-1.408 1.909,-0.761 2.801,-2.048 2.468,-4.124 m -23.809,-41.541 h 57.6 v 57.6 h -57.6 z"
             style="fill:#007f00;fill-opacity:1;fill-rule:nonzero;stroke:none"
             id="path4418"
             inkscape:connector-curvature="0" /></g><g
           id="g4420"
           transform="translate(361.8061,288.7451)"><path
             d="M 0,0 C -0.153,-0.05 -0.18,0.124 -0.215,0.229 -0.36,0.657 -0.642,0.968 -1.014,1.215 -1.989,1.866 -3.116,1.505 -3.523,0.403 -3.582,0.246 -3.632,0.084 -3.67,-0.079 c -0.091,-0.395 -0.306,-0.645 -0.734,-0.658 -0.475,-0.015 -0.589,-0.28 -0.568,-0.718 0.048,-1.005 0.126,-2.01 0.192,-3.013 0.16,-2.439 0.109,-4.889 0.381,-7.323 0.066,-0.593 0.03,-1.197 0.036,-1.797 0.004,-0.44 -0.223,-0.669 -0.661,-0.673 -0.72,-0.005 -1.441,-0.02 -2.16,0.004 -0.607,0.02 -0.779,0.178 -0.768,0.792 0.016,0.862 0.103,1.722 0.153,2.584 0.079,1.339 0.168,2.679 0.225,4.02 0.072,1.7 0.128,3.401 0.168,5.102 0.022,0.91 -0.077,0.894 -0.959,1.046 -1.027,0.176 -2.024,-0.113 -3.036,-0.029 -0.762,0.063 -0.868,0.133 -0.888,0.897 -0.01,0.36 -0.002,0.72 -0.002,1.079 h 0.01 c 0,0.408 -0.007,0.816 0.002,1.224 0.009,0.465 0.257,0.714 0.722,0.704 0.709,-0.015 1.449,0.166 2.09,-0.31 0.133,-0.099 0.282,-0.086 0.4,0.015 0.426,0.367 0.94,0.306 1.44,0.307 1.775,0.003 3.552,-0.037 5.325,0.015 0.961,0.028 1.543,-0.381 1.903,-1.216 C -0.171,1.442 0.009,0.897 0.087,0.323 0.102,0.208 0.125,0.041 0,0 m -13.563,2.037 c -0.03,-0.187 -10e-4,-0.383 -0.002,-0.576 -0.006,-2.138 0.147,-1.72 -1.545,-2.64 -0.56,-0.304 -0.813,-0.681 -0.769,-1.313 0.112,-1.603 0.146,-3.208 0.153,-4.816 0.004,-0.766 0.027,-1.533 0.058,-2.3 0.037,-0.728 0.085,-1.456 0.167,-2.183 0.038,-0.343 0.042,-0.691 0.039,-1.04 -10e-4,-0.088 -0.002,-0.265 -0.003,-0.353 -10e-4,-0.135 -0.002,-0.27 -10e-4,-0.404 0.004,-0.44 -0.222,-0.669 -0.661,-0.673 -0.72,-0.005 -1.439,-0.02 -2.158,0.004 -0.609,0.02 -0.78,0.178 -0.769,0.792 10e-4,0.093 0.01,0.187 0.014,0.281 0.005,0.125 0.018,0.375 0.024,0.5 0.033,0.601 0.08,1.202 0.116,1.803 0.002,0.039 0.004,0.079 0.006,0.119 0.1,2.809 0.098,5.621 0.302,8.425 0.027,0.355 -0.095,0.601 -0.38,0.792 -0.458,0.306 -0.899,0.639 -1.37,0.924 -0.412,0.249 -0.608,0.579 -0.598,1.061 0.014,0.768 0.016,1.536 0,2.303 -0.011,0.493 0.203,0.815 0.633,1.029 0.558,0.279 1.114,0.562 1.66,0.862 0.763,0.419 0.892,0.351 0.909,-0.529 0.011,-0.647 0.005,-1.295 0.027,-1.942 0.01,-0.286 0.139,-0.527 0.469,-0.535 0.342,-0.007 0.44,0.24 0.46,0.528 0.013,0.215 0.012,0.431 0.014,0.647 0.006,0.552 -0.003,1.104 0.017,1.655 0.016,0.427 0.23,0.556 0.62,0.345 0.443,-0.24 0.869,-0.519 1.334,-0.704 0.955,-0.381 1.401,-1.024 1.234,-2.062 m -11.904,-20.77 h 28.8 v 28.8 h -28.8 z"
             style="fill:#007f00;fill-opacity:1;fill-rule:nonzero;stroke:none"
             id="path4422"
             inkscape:connector-curvature="0" /></g><g
           id="g4424"
           transform="translate(319.7787,280.7202)"><path
             d="M 0,0 H -18.72 V 7.2 L -9.36,10.08 0,7.2 Z m -9.36,18.36 c -7.952,0 -14.4,-6.447 -14.4,-14.4 0,-7.953 6.448,-14.4 14.4,-14.4 7.953,0 14.4,6.447 14.4,14.4 0,7.953 -6.447,14.4 -14.4,14.4"
             style="fill:#007f00;fill-opacity:1;fill-rule:nonzero;stroke:none"
             id="path4426"
             inkscape:connector-curvature="0" /></g><g
           id="g4428"
           transform="translate(332.2934,289.0801)"><path
             d="m 0,0 c 0,-0.994 -0.806,-1.8 -1.8,-1.8 -0.994,0 -1.8,0.806 -1.8,1.8 0,0.994 0.806,1.8 1.8,1.8 C -0.806,1.8 0,0.994 0,0"
             style="fill:#007f00;fill-opacity:1;fill-rule:nonzero;stroke:none"
             id="path4430"
             inkscape:connector-curvature="0" /></g><g
           id="g4432"
           transform="translate(332.2934,281.8799)"><path
             d="m 0,0 c 0,-0.994 -0.806,-1.8 -1.8,-1.8 -0.994,0 -1.8,0.806 -1.8,1.8 0,0.994 0.806,1.8 1.8,1.8 C -0.806,1.8 0,0.994 0,0"
             style="fill:#007f00;fill-opacity:1;fill-rule:nonzero;stroke:none"
             id="path4434"
             inkscape:connector-curvature="0" /></g><path
           d="m 379.093,286.56 h -10.8 v 2.16 h 10.8 z"
           style="fill:#007f00;fill-opacity:1;fill-rule:nonzero;stroke:none"
           id="path4436"
           inkscape:connector-curvature="0" /><path
           d="m 379.093,282.24 h -10.8 v 2.16 h 10.8 z"
           style="fill:#007f00;fill-opacity:1;fill-rule:nonzero;stroke:none"
           id="path4438"
           inkscape:connector-curvature="0" /><g
           id="g4440"
           transform="translate(393.9926,297.0713)"><path
             d="M 0,0 H 5.738 C 6.7,0 7.482,0.78 7.488,1.74 H -1.749 C -1.744,0.78 -0.962,0 0,0"
             style="fill:#007f00;fill-opacity:1;fill-rule:nonzero;stroke:none"
             id="path4442"
             inkscape:connector-curvature="0" /></g><g
           id="g4444"
           transform="translate(384.2123,281.5522)"><path
             d="m 0,0 v 5.739 c 0,0.965 -0.785,1.75 -1.75,1.75 -0.015,0 -0.028,-0.004 -0.043,-0.005 v -9.23 C -1.778,-1.747 -1.765,-1.75 -1.75,-1.75 -0.785,-1.75 0,-0.965 0,0"
             style="fill:#007f00;fill-opacity:1;fill-rule:nonzero;stroke:none"
             id="path4446"
             inkscape:connector-curvature="0" /></g><g
           id="g4448"
           transform="translate(409.5111,287.291)"><path
             d="m 0,0 v -5.739 c 0,-0.95 0.763,-1.722 1.708,-1.746 V 1.746 C 0.763,1.722 0,0.95 0,0"
             style="fill:#007f00;fill-opacity:1;fill-rule:nonzero;stroke:none"
             id="path4450"
             inkscape:connector-curvature="0" /></g><g
           id="g4452"
           transform="translate(401.8637,276.1143)"><path
             d="m 0,0 h -10.297 v 2.472 c 5.496,5.497 6.817,6.985 6.817,9.145 0,1.392 -0.888,2.232 -2.208,2.232 -1.224,0 -2.065,-0.528 -3.025,-1.704 l -2.064,1.632 c 1.297,1.704 3.072,2.713 5.401,2.713 3.456,0 5.4,-2.065 5.4,-4.585 0,-2.616 -1.416,-4.56 -6.432,-9.265 h 6.792 z m 6.147,5.438 v 5.739 c 0,1.778 1.436,3.224 3.208,3.248 v 2.872 l -5.4,5.4 H 1.117 c -0.005,-1.787 -1.461,-3.24 -3.25,-3.24 h -5.738 c -1.789,0 -3.244,1.453 -3.25,3.24 h -2.924 l -5.399,-5.4 v -2.872 c 0.013,0 0.028,0.002 0.043,0.002 1.792,0 3.25,-1.458 3.25,-3.25 V 5.438 c 0,-1.792 -1.458,-3.25 -3.25,-3.25 -0.015,0 -0.03,10e-4 -0.043,0.002 v -2.893 l 5.399,-5.4 h 2.924 v 0.01 c 0,1.792 1.458,3.25 3.25,3.25 h 5.738 c 1.793,0 3.251,-1.458 3.251,-3.25 0,-0.003 -0.001,-0.006 -0.001,-0.01 h 2.838 l 5.4,5.4 V 2.19 C 7.583,2.213 6.147,3.66 6.147,5.438"
             style="fill:#007f00;fill-opacity:1;fill-rule:nonzero;stroke:none"
             id="path4454"
             inkscape:connector-curvature="0" /></g><g
           id="g4456"
           transform="translate(401.4818,270.0215)"><path
             d="m 0,0 c 0,0.965 -0.785,1.75 -1.751,1.75 h -5.738 c -0.965,0 -1.75,-0.785 -1.75,-1.75 0,-0.003 0.001,-0.006 0.001,-0.01 h 9.237 C -0.001,-0.006 0,-0.003 0,0"
             style="fill:#007f00;fill-opacity:1;fill-rule:nonzero;stroke:none"
             id="path4458"
             inkscape:connector-curvature="0" /></g><g
           id="g4460"
           transform="translate(531.1263,339.3486)"><path
             d="M 0,0 -4.707,9.539 -9.415,0 l -10.527,-1.529 7.618,-7.425 -1.799,-10.484 9.416,4.95 9.415,-4.95 -1.799,10.484 7.618,7.425 z"
             style="fill:#007f00;fill-opacity:1;fill-rule:nonzero;stroke:none"
             id="path4462"
             inkscape:connector-curvature="0" /></g><g
           id="g4464"
           transform="translate(541.1469,312.5977)"><path
             d="M 0,0 -14.728,7.743 -29.456,0 l 2.812,16.4 -11.915,11.615 16.467,2.392 7.364,14.922 L -7.364,30.407 9.103,28.015 -2.813,16.4 Z m -43.528,-6.567 h 57.601 v 57.6 h -57.601 z"
             style="fill:#007f00;fill-opacity:1;fill-rule:nonzero;stroke:none"
             id="path4466"
             inkscape:connector-curvature="0" /></g><g
           id="g4468"
           transform="translate(518.6927,286.6895)"><path
             d="M 0,0 -2.354,4.77 -4.708,0 l -5.264,-0.765 3.81,-3.712 -0.899,-5.242 4.707,2.475 4.708,-2.475 -0.9,5.242 3.81,3.712 z"
             style="fill:#007f00;fill-opacity:1;fill-rule:nonzero;stroke:none"
             id="path4470"
             inkscape:connector-curvature="0" /></g><g
           id="g4472"
           transform="translate(523.7025,273.314)"><path
             d="M 0,0 -7.363,3.872 -14.728,0 l 1.407,8.2 -5.958,5.807 8.233,1.197 3.683,7.461 3.681,-7.461 L 4.552,14.007 -1.406,8.2 Z m -21.764,-3.284 h 28.8 v 28.8 h -28.8 z"
             style="fill:#007f00;fill-opacity:1;fill-rule:nonzero;stroke:none"
             id="path4474"
             inkscape:connector-curvature="0" /></g><g
           id="g4476"
           transform="translate(476.019,282.52)"><path
             d="m 0,0 c -1.192,0 -2.16,0.967 -2.16,2.16 0,1.193 0.968,2.16 2.16,2.16 1.193,0 2.16,-0.967 2.16,-2.16 C 2.16,0.967 1.193,0 0,0 m 0,5.76 c -1.988,0 -3.6,-1.612 -3.6,-3.6 0,-1.988 1.612,-3.6 3.6,-3.6 1.988,0 3.6,1.612 3.6,3.6 0,1.988 -1.612,3.6 -3.6,3.6"
             style="fill:#007f00;fill-opacity:1;fill-rule:nonzero;stroke:none"
             id="path4478"
             inkscape:connector-curvature="0" /></g><g
           id="g4480"
           transform="translate(484.6742,276.0249)"><path
             d="m 0,0 -7.242,5.245 -1.413,-8.83 -1.413,8.83 -7.243,-5.245 5.246,7.242 -8.831,1.413 8.831,1.413 -5.246,7.242 7.243,-5.244 1.413,8.829 1.413,-8.83 L 0,17.31 -5.244,10.068 3.585,8.655 -5.244,7.242 Z m -8.655,23.055 c -7.953,0 -14.4,-6.447 -14.4,-14.4 0,-7.953 6.447,-14.4 14.4,-14.4 7.953,0 14.4,6.447 14.4,14.4 0,7.953 -6.447,14.4 -14.4,14.4"
             style="fill:#007f00;fill-opacity:1;fill-rule:nonzero;stroke:none"
             id="path4482"
             inkscape:connector-curvature="0" /></g><g
           id="g4484"
           transform="translate(497.893,289.0801)"><path
             d="m 0,0 c 0,-0.994 -0.806,-1.8 -1.8,-1.8 -0.994,0 -1.8,0.806 -1.8,1.8 0,0.994 0.806,1.8 1.8,1.8 C -0.806,1.8 0,0.994 0,0"
             style="fill:#007f00;fill-opacity:1;fill-rule:nonzero;stroke:none"
             id="path4486"
             inkscape:connector-curvature="0" /></g><g
           id="g4488"
           transform="translate(497.893,281.8799)"><path
             d="m 0,0 c 0,-0.994 -0.806,-1.8 -1.8,-1.8 -0.994,0 -1.8,0.806 -1.8,1.8 0,0.994 0.806,1.8 1.8,1.8 C -0.806,1.8 0,0.994 0,0"
             style="fill:#007f00;fill-opacity:1;fill-rule:nonzero;stroke:none"
             id="path4490"
             inkscape:connector-curvature="0" /></g><path
           d="m 544.694,286.56 h -10.801 v 2.16 h 10.801 z"
           style="fill:#007f00;fill-opacity:1;fill-rule:nonzero;stroke:none"
           id="path4492"
           inkscape:connector-curvature="0" /><path
           d="m 544.694,282.24 h -10.801 v 2.16 h 10.801 z"
           style="fill:#007f00;fill-opacity:1;fill-rule:nonzero;stroke:none"
           id="path4494"
           inkscape:connector-curvature="0" /><g
           id="g4496"
           transform="translate(559.5922,297.0713)"><path
             d="M 0,0 H 5.739 C 6.701,0 7.482,0.78 7.488,1.74 H -1.749 C -1.743,0.78 -0.962,0 0,0"
             style="fill:#007f00;fill-opacity:1;fill-rule:nonzero;stroke:none"
             id="path4498"
             inkscape:connector-curvature="0" /></g><g
           id="g4500"
           transform="translate(575.1117,287.291)"><path
             d="m 0,0 v -5.739 c 0,-0.95 0.763,-1.722 1.707,-1.746 V 1.746 C 0.763,1.722 0,0.95 0,0"
             style="fill:#007f00;fill-opacity:1;fill-rule:nonzero;stroke:none"
             id="path4502"
             inkscape:connector-curvature="0" /></g><g
           id="g4504"
           transform="translate(549.8119,281.5522)"><path
             d="m 0,0 v 5.739 c 0,0.965 -0.785,1.75 -1.75,1.75 -0.015,0 -0.028,-0.004 -0.043,-0.005 v -9.23 C -1.778,-1.747 -1.765,-1.75 -1.75,-1.75 -0.785,-1.75 0,-0.965 0,0"
             style="fill:#007f00;fill-opacity:1;fill-rule:nonzero;stroke:none"
             id="path4506"
             inkscape:connector-curvature="0" /></g><g
           id="g4508"
           transform="translate(567.0814,270.0215)"><path
             d="m 0,0 c 0,0.965 -0.785,1.75 -1.75,1.75 h -5.739 c -0.965,0 -1.75,-0.785 -1.75,-1.75 0,-0.003 0.001,-0.006 0.001,-0.01 h 9.237 C -0.001,-0.006 0,-0.003 0,0"
             style="fill:#007f00;fill-opacity:1;fill-rule:nonzero;stroke:none"
             id="path4510"
             inkscape:connector-curvature="0" /></g><g
           id="g4512"
           transform="translate(561.8226,275.7305)"><path
             d="m 0,0 c -2.328,0 -4.128,0.864 -5.376,2.4 l 1.897,1.824 c 1.007,-1.128 2.04,-1.584 3.288,-1.584 1.631,0 2.712,0.936 2.712,2.544 0,1.8 -1.008,2.448 -2.785,2.448 h -1.32 l 0.408,2.401 h 0.889 c 1.464,0 2.472,0.816 2.472,2.28 0,1.248 -0.888,1.992 -2.281,1.992 -1.223,0 -2.208,-0.456 -3.192,-1.392 l -1.704,1.848 c 1.464,1.392 3.192,2.113 5.232,2.113 3.433,0 5.257,-1.849 5.257,-4.105 C 5.497,10.777 4.272,9.48 2.329,8.953 4.345,8.737 6.025,7.513 6.025,4.968 6.025,2.232 3.865,0 0,0 m 11.789,5.822 v 5.739 c 0,1.777 1.435,3.224 3.207,3.248 v 2.872 l -5.399,5.4 H 6.758 C 6.753,21.293 5.298,19.841 3.509,19.841 H -2.23 c -1.79,0 -3.245,1.452 -3.25,3.24 h -2.923 l -5.401,-5.4 v -2.872 c 0.015,0 0.029,0.002 0.043,0.002 1.792,0 3.25,-1.458 3.25,-3.25 V 5.822 c 0,-1.793 -1.458,-3.251 -3.25,-3.251 -0.014,0 -0.028,0.002 -0.043,0.003 v -2.893 l 5.401,-5.4 h 2.923 v 0.01 c 0,1.792 1.458,3.25 3.25,3.25 h 5.739 c 1.792,0 3.25,-1.458 3.25,-3.25 0,-0.003 -0.001,-0.006 -0.001,-0.01 h 2.839 l 5.399,5.4 v 2.893 c -1.772,0.023 -3.207,1.47 -3.207,3.248"
             style="fill:#007f00;fill-opacity:1;fill-rule:nonzero;stroke:none"
             id="path4514"
             inkscape:connector-curvature="0" /></g><g
           id="g4516"
           transform="translate(53.0976,231.2236)"><path
             d="M 0,0 C -0.378,-0.03 -0.761,-0.007 -1.131,-0.007 V -2.763 H 1.781 C 1.516,-1.765 1.604,-0.755 1.12,0.177 0.724,0.112 0.364,0.029 0,0"
             style="fill:#007f00;fill-opacity:1;fill-rule:nonzero;stroke:none"
             id="path4518"
             inkscape:connector-curvature="0" /></g><g
           id="g4520"
           transform="translate(53.8891,232.3701)"><path
             d="M 0,0 C -0.267,0.525 -0.611,1.007 -0.898,1.516 -1.151,1.964 -1.47,2.055 -1.934,2.034 v -2.64 c 0.678,0.074 1.324,0.145 2.017,0.221 C 0.056,-0.253 0.057,-0.112 0,0"
             style="fill:#007f00;fill-opacity:1;fill-rule:nonzero;stroke:none"
             id="path4522"
             inkscape:connector-curvature="0" /></g><g
           id="g4524"
           transform="translate(51.9472,224.5054)"><path
             d="m 0,0 v -2.586 c 0.153,0.028 0.283,0.045 0.408,0.078 0.151,0.04 0.299,0.094 0.436,0.138 0.396,0.692 0.785,1.371 1.179,2.059 C 1.38,0.119 0.639,-0.294 0,0"
             style="fill:#007f00;fill-opacity:1;fill-rule:nonzero;stroke:none"
             id="path4526"
             inkscape:connector-curvature="0" /></g><g
           id="g4528"
           transform="translate(50.2138,224.4033)"><path
             d="M 0,0 C -0.321,-0.017 -0.653,0.038 -0.939,-0.303 -0.6,-1.016 -0.203,-1.72 0.29,-2.29 0.601,-2.368 0.838,-2.427 1.112,-2.496 V 0.131 C 0.745,-0.099 0.364,0.018 0,0"
             style="fill:#007f00;fill-opacity:1;fill-rule:nonzero;stroke:none"
             id="path4530"
             inkscape:connector-curvature="0" /></g><g
           id="g4532"
           transform="translate(54.8476,227.8569)"><path
             d="m 0,0 h -2.917 v -1.388 -1.289 c 0.809,-0.094 1.539,-0.18 2.299,-0.269 C -0.25,-2.056 -0.171,-1.036 0,0"
             style="fill:#007f00;fill-opacity:1;fill-rule:nonzero;stroke:none"
             id="path4534"
             inkscape:connector-curvature="0" /></g><g
           id="g4536"
           transform="translate(54.8837,224.7554)"><path
             d="m 0,0 c 0.485,-0.145 0.995,-0.297 1.541,-0.459 0.9,0.982 1.213,2.243 1.465,3.553 H 0.538 C 0.542,2.001 0.331,0.979 0,0"
             style="fill:#007f00;fill-opacity:1;fill-rule:nonzero;stroke:none"
             id="path4538"
             inkscape:connector-curvature="0" /></g><g
           id="g4540"
           transform="translate(56.0302,232.5674)"><path
             d="M 0,0 C -0.654,0.635 -1.361,1.093 -2.234,1.448 -1.912,0.805 -1.635,0.251 -1.303,-0.414 -0.845,-0.269 -0.44,-0.14 0,0"
             style="fill:#007f00;fill-opacity:1;fill-rule:nonzero;stroke:none"
             id="path4542"
             inkscape:connector-curvature="0" /></g><g
           id="g4544"
           transform="translate(48.4569,227.8804)"><path
             d="m 0,0 c -0.06,-1.103 0.214,-2.083 0.545,-2.975 0.828,0.097 1.579,0.184 2.352,0.274 C 2.873,-1.802 2.928,-0.899 2.864,0 Z"
             style="fill:#007f00;fill-opacity:1;fill-rule:nonzero;stroke:none"
             id="path4546"
             inkscape:connector-curvature="0" /></g><g
           id="g4548"
           transform="translate(55.4062,228.4731)"><path
             d="M 0,0 H 2.566 C 2.458,0.229 2.336,0.37 2.336,0.51 2.334,1.117 2.139,1.668 1.888,2.203 1.669,2.667 1.471,3.152 1.037,3.512 0.562,3.233 -0.062,3.397 -0.458,2.927 -0.174,1.951 0.083,1.001 0,0"
             style="fill:#007f00;fill-opacity:1;fill-rule:nonzero;stroke:none"
             id="path4550"
             inkscape:connector-curvature="0" /></g><g
           id="g4552"
           transform="translate(50.1064,231.2085)"><path
             d="m 0,0 c -0.416,-0.041 -0.794,0.344 -1.194,0.101 -0.219,-0.934 -0.548,-1.833 -0.451,-2.823 h 2.874 v 2.73 C 0.81,0.008 0.401,0.039 0,0"
             style="fill:#007f00;fill-opacity:1;fill-rule:nonzero;stroke:none"
             id="path4554"
             inkscape:connector-curvature="0" /></g><g
           id="g4556"
           transform="translate(53.7807,222.3906)"><path
             d="M 0,0 C 0.899,0.3 1.558,0.823 2.228,1.371 1.806,1.488 1.396,1.602 0.941,1.729 0.64,1.175 0.333,0.61 0,0"
             style="fill:#007f00;fill-opacity:1;fill-rule:nonzero;stroke:none"
             id="path4558"
             inkscape:connector-curvature="0" /></g><g
           id="g4560"
           transform="translate(47.2563,223.7456)"><path
             d="M 0,0 C 0.188,-0.177 0.343,-0.363 0.536,-0.494 0.886,-0.732 1.253,-0.948 1.626,-1.148 1.747,-1.214 1.91,-1.202 2.068,-1.228 1.78,-0.659 1.521,-0.146 1.244,0.401 0.841,0.271 0.44,0.142 0,0"
             style="fill:#007f00;fill-opacity:1;fill-rule:nonzero;stroke:none"
             id="path4562"
             inkscape:connector-curvature="0" /></g><g
           id="g4564"
           transform="translate(64.9823,225.7734)"><path
             d="m 0,0 c -0.284,-0.063 -0.354,-0.315 -0.425,-0.533 -0.187,-0.572 -0.441,-1.091 -0.889,-1.512 -0.511,-0.481 -0.501,-0.492 -1.237,-0.475 -0.222,0.356 0.091,0.665 0.089,1 h -0.366 c -0.05,0.099 -0.079,0.22 -0.154,0.295 -0.267,0.264 -0.321,0.599 -0.35,0.943 -0.053,0.656 -0.094,1.313 -0.151,1.968 -0.007,0.085 -0.079,0.166 -0.169,0.345 0.51,-0.199 0.627,-0.62 0.884,-0.895 0.254,-0.271 0.388,-0.655 0.596,-1.028 0,-0.217 0.018,-0.483 -0.006,-0.745 -0.023,-0.248 -0.091,-0.492 -0.139,-0.738 0.358,0.376 0.66,0.792 1.121,1.086 0.315,0.2 0.645,0.476 0.789,0.885 0.051,0.145 0.204,0.253 0.317,0.384 C 0.146,0.651 -0.097,0.414 -0.154,0.169 -0.094,0.104 -0.047,0.052 0,0 M -1.538,-3.601 C -1.887,-4.09 -2.335,-4.406 -2.826,-4.688 h -1.199 c -0.142,0.461 0.261,0.671 0.402,0.992 -0.399,-0.071 -0.389,0.326 -0.58,0.518 0,0.319 0.036,0.659 -0.011,0.988 -0.042,0.301 0.135,0.532 0.163,0.807 0.026,0.269 -0.102,0.547 0.12,0.82 0.103,0.127 0.017,0.408 0.104,0.631 0.245,-0.603 0.491,-1.207 0.803,-1.977 0.108,-0.416 -0.19,-0.941 -0.309,-1.496 0.09,0.017 0.208,0.003 0.264,0.056 0.245,0.232 0.524,0.325 0.857,0.398 0.483,0.107 0.891,0.427 1.292,0.722 0.083,0.062 0.181,0.1 0.314,0.107 -0.23,-0.554 -0.593,-1.003 -0.932,-1.479 m -0.778,-1.612 c -0.323,-0.407 -0.792,-0.625 -1.202,-0.921 -0.659,-0.477 -1.357,-0.588 -2.128,-0.323 -0.251,0.087 -0.327,0.241 -0.282,0.535 0.164,0.142 0.364,0.314 0.564,0.485 h -0.264 c -0.045,0.825 -0.104,1.631 0.385,2.39 0.236,0.366 0.344,0.813 0.541,1.299 0.237,-0.832 0.303,-1.617 0.385,-2.427 -0.252,-0.372 -0.505,-0.744 -0.757,-1.117 0.317,0.049 0.631,0.117 0.949,0.14 0.335,0.025 0.676,-0.025 1.007,0.016 0.237,0.03 0.457,0.169 0.691,0.238 0.121,0.035 0.257,0.025 0.367,0.034 0.129,-0.338 -0.171,-0.241 -0.256,-0.349 m -4.419,-2.694 c -0.357,-0.008 -0.659,0.139 -0.981,0.246 -0.335,0.113 -0.5,0.387 -0.788,0.658 0.465,0.237 0.858,0.421 1.324,0.408 0.552,-0.017 1.084,10e-4 1.621,-0.266 0.37,-0.183 0.86,-0.122 1.296,-0.172 0.066,-0.008 0.131,-0.025 0.287,-0.056 -0.946,-0.396 -1.792,-0.796 -2.759,-0.818 m 0.063,-0.643 c -0.033,-0.024 -0.069,-0.074 -0.105,-0.074 -0.555,-0.005 -1.11,0.003 -1.665,-0.005 -1.024,-0.016 -1.924,0.254 -2.576,1.107 v 0.277 c 0.283,0.157 0.521,0.248 0.882,0.095 0.317,-0.134 0.736,0.012 1.088,-0.169 0.138,-0.072 0.321,-0.077 0.433,-0.172 0.566,-0.484 1.255,-0.693 1.943,-0.906 z m -1.012,3.728 c -0.13,-0.476 -0.321,-0.927 -0.528,-1.374 -0.105,-0.227 -0.235,-0.352 -0.458,-0.455 -0.414,-0.194 -0.815,-0.412 -1.289,-0.375 -0.104,0.008 -0.202,0.094 -0.356,0.172 0.455,0.831 0.49,1.075 1.681,1.717 0.358,0.193 0.655,0.498 0.97,0.744 0.267,-0.197 0.016,-0.297 -0.02,-0.429 m 1.595,-0.686 c -0.706,-0.8 -0.923,-0.929 -1.574,-0.925 -0.117,0.768 0.152,1.4 0.694,1.923 0.382,0.368 0.707,0.774 0.959,1.26 0.248,-0.78 -0.129,-1.511 -0.079,-2.258 m -6.222,0.507 c -0.378,0.037 -0.711,-0.232 -1.102,-0.151 -0.162,0.034 -0.39,-0.063 -0.496,0.018 -0.375,0.287 -0.814,0.051 -1.219,0.22 -0.616,0.258 -1.282,0.393 -1.871,0.736 -0.912,0.532 -1.706,1.167 -2.351,2.031 -0.512,0.688 -0.869,1.426 -1.151,2.212 -0.122,0.339 -0.162,0.713 -0.26,1.056 -0.168,0.589 -0.137,1.174 -0.114,1.758 0.033,0.845 0.256,1.656 0.565,2.446 0.482,1.227 1.286,2.227 2.292,3.028 0.808,0.643 1.744,1.077 2.786,1.325 0.858,0.204 1.713,0.351 2.566,0.24 0.841,-0.11 1.702,-0.23 2.463,-0.695 0.42,-0.257 0.932,-0.357 1.282,-0.722 0.427,0.337 0.707,0.84 1.319,1.109 h -0.921 c -0.544,0.341 -1.07,0.53 -1.689,0.695 0.642,0.385 1.342,0.376 1.97,0.588 0.618,0.21 1.279,0.295 1.894,0.509 0.638,0.223 1.307,0.318 1.975,0.516 0.13,-0.355 -0.111,-0.711 -0.18,-1.08 C -4.63,10.423 -4.812,10.028 -4.925,9.618 -5.039,9.203 -5.09,8.77 -5.226,8.363 -5.468,7.64 -5.57,6.875 -5.908,6.091 c -0.123,0.33 -0.216,0.606 -0.329,0.872 -0.104,0.248 -0.23,0.488 -0.456,0.713 0.058,0.304 0.115,0.609 0.194,1.027 -0.452,-0.514 -0.826,-0.938 -1.24,-1.409 0.545,-0.432 0.919,-0.992 1.172,-1.607 0.3,-0.728 0.619,-1.462 0.63,-2.28 0.002,-0.174 0.11,-0.344 0.132,-0.52 0.025,-0.191 0.026,-0.389 0.003,-0.579 -0.15,-1.219 -0.3,-2.446 -0.94,-3.525 -0.507,-0.855 -1.09,-1.634 -1.915,-2.258 -0.778,-0.588 -1.59,-1.04 -2.512,-1.303 -0.372,-0.106 -0.74,-0.262 -1.142,-0.223 m 1.119,-3.756 h -0.839 v 1.254 c -0.066,0.009 -0.098,0.014 -0.098,0.014 -0.026,-0.16 -0.05,-0.321 -0.085,-0.56 h -0.961 v -0.689 h -0.871 v 2.106 h 0.96 c 0.06,-0.092 0.156,-0.24 0.273,-0.419 0.163,0.449 0.321,0.884 0.477,1.311 h 1.144 z m -3.145,0.007 h -0.868 v 2.274 h -0.88 v 0.749 h 1.582 1.649 c -0.086,-0.271 -0.152,-0.479 -0.225,-0.706 h -1.258 z m -1.343,1.208 c -0.406,-0.449 -0.848,-0.805 -1.483,-0.96 -0.948,-0.232 -1.883,-0.048 -2.837,-0.133 v 0.246 c 0.646,0.149 1.242,0.409 1.785,0.772 0.411,0.274 0.841,0.441 1.34,0.444 0.2,0.002 0.399,0.05 0.702,0.091 0.123,-0.035 0.295,-0.084 0.501,-0.143 0,-0.096 0.048,-0.254 -0.008,-0.317 m -5.905,-0.02 c -0.26,0.062 -0.514,0.149 -0.763,0.245 -0.104,0.039 -0.188,0.13 -0.358,0.254 0.284,0.013 0.49,0.006 0.691,0.036 0.176,0.026 0.343,0.101 0.517,0.138 0.267,0.056 0.54,0.082 0.804,0.15 1.03,0.265 1.626,0.216 2.443,-0.271 -0.342,-0.593 -0.902,-0.805 -1.53,-0.89 -0.635,-0.085 -1.208,0.198 -1.804,0.338 m 2.392,3.104 c 0.054,-0.029 0.958,-0.51 0.958,-0.51 0.277,-0.28 0.664,-0.389 0.974,-0.641 0.289,-0.237 0.411,-0.598 0.681,-0.732 0.06,-0.209 0.102,-0.355 0.157,-0.547 -0.711,-0.433 -1.248,0.193 -1.91,0.346 -0.282,0.683 -0.562,1.361 -0.86,2.084 m 0.182,-1.959 c -0.35,-0.097 -0.63,0.023 -0.938,0.238 -0.27,0.188 -0.406,0.473 -0.619,0.645 -0.058,0.817 -0.282,1.53 -0.147,2.242 0.303,-0.375 0.578,-0.766 0.905,-1.106 0.54,-0.56 0.895,-1.177 0.799,-2.019 m -5.669,1.429 c 0.119,0.193 0.284,0.168 0.421,0.09 0.374,-0.216 0.775,-0.266 1.195,-0.25 0.264,0.01 0.528,10e-4 0.793,0.002 0.231,0.001 0.412,-0.222 0.66,-0.146 -0.243,0.354 -0.485,0.707 -0.708,1.031 -0.051,0.461 0.024,0.862 0.113,1.273 0.082,0.375 -0.068,0.794 0.236,1.152 0.304,-0.681 0.682,-1.349 0.895,-2.066 0.136,-0.457 0.025,-0.987 0.025,-1.535 h -0.271 c 0.2,-0.171 0.4,-0.343 0.577,-0.496 0.021,-0.275 -0.041,-0.437 -0.295,-0.524 -0.771,-0.264 -1.453,-0.128 -2.133,0.315 -0.532,0.346 -1.006,0.751 -1.508,1.154 m -1.281,2.919 c 0.296,-0.262 0.602,-0.537 0.999,-0.673 0.233,-0.079 0.425,-0.234 0.702,-0.248 0.201,-0.01 0.389,-0.209 0.59,-0.31 0.098,-0.05 0.212,-0.071 0.318,-0.105 -0.048,0.148 -0.086,0.301 -0.147,0.444 -0.169,0.399 -0.154,0.815 -0.143,1.103 0.287,0.722 0.527,1.327 0.82,2.064 0.077,-0.655 0.064,-1.181 0.214,-1.655 0.186,-0.587 0.077,-1.166 0.13,-1.726 -0.195,-0.195 -0.185,-0.592 -0.584,-0.521 0.141,-0.321 0.545,-0.531 0.402,-0.992 h -1.237 c -1.022,0.578 -1.473,1.298 -2.211,2.507 0.036,0.027 0.071,0.055 0.147,0.112 m -0.732,3.062 c 0.349,-0.392 0.628,-0.73 0.936,-1.041 0.176,-0.178 0.416,-0.293 0.597,-0.469 0.278,-0.272 0.53,-0.57 0.793,-0.858 -0.049,0.246 -0.117,0.49 -0.14,0.738 -0.024,0.262 -0.005,0.528 -0.005,0.856 0.394,0.555 0.814,1.15 1.241,1.74 0.016,0.023 0.092,0.003 0.176,0.003 -0.04,-0.125 -0.09,-0.234 -0.108,-0.349 -0.018,-0.118 0.01,-0.242 -0.006,-0.361 -0.041,-0.295 -0.113,-0.586 -0.138,-0.882 -0.024,-0.288 0.04,-0.588 -0.016,-0.867 -0.075,-0.374 -0.288,-0.702 -0.497,-1.023 h -0.362 c 0.062,-0.313 0.123,-0.626 0.2,-1.014 -0.329,0.04 -0.562,-0.036 -0.858,0.117 -0.421,0.219 -0.717,0.511 -0.937,0.907 -0.338,0.607 -0.576,1.258 -0.818,1.906 -0.061,0.162 -0.038,0.355 -0.058,0.597 m 0.15,3.129 c 0.217,-0.427 0.352,-0.721 0.512,-1 0.281,-0.489 0.579,-0.968 0.867,-1.453 0.054,-0.09 0.095,-0.189 0.16,-0.317 0.058,0.35 0.236,0.624 0.213,0.968 -0.019,0.287 0.161,0.557 0.4,0.69 0.51,0.284 0.826,0.768 1.323,1.164 -0.013,-0.225 0.04,-0.444 -0.043,-0.575 -0.299,-0.471 -0.373,-1.012 -0.517,-1.525 -0.183,-0.643 -0.658,-0.978 -1.177,-1.39 v -0.786 c -0.185,0.056 -0.339,0.077 -0.466,0.145 -0.529,0.285 -0.974,0.64 -0.982,1.316 -0.248,0.247 -0.048,0.603 -0.196,0.859 -0.159,0.276 -0.072,0.555 -0.09,0.831 -0.019,0.307 -0.004,0.616 -0.004,1.073 m 0.552,0.946 c 0.074,0.158 0.006,0.377 0.032,0.565 0.048,0.362 0.113,0.721 0.182,1.08 0.016,0.086 0.073,0.164 0.178,0.211 0.023,-0.844 0.265,-1.568 0.627,-2.304 0,-0.64 0.004,-1.262 -0.007,-1.884 0,-0.052 -0.095,-0.103 -0.151,-0.159 -0.378,0.09 -0.581,0.34 -0.692,0.708 -0.175,0.584 -0.468,1.144 -0.169,1.783 m 0.909,2.3 c 0.167,0.575 0.408,1.13 0.617,1.693 0.039,-0.007 0.077,-0.013 0.116,-0.019 0.042,-0.267 0.111,-0.533 0.121,-0.801 0.017,-0.442 0.219,-0.853 0.161,-1.313 -0.052,-0.405 -0.291,-1.314 -0.569,-1.804 -0.447,0.228 -0.576,0.647 -0.589,1.081 -0.011,0.387 0.036,0.792 0.143,1.163 m 1.302,-0.741 c 0.439,0.661 1.071,0.856 1.68,1.197 0.024,-0.136 0.072,-0.231 0.049,-0.302 -0.221,-0.673 -0.584,-1.254 -1.259,-1.773 0.211,0.028 0.329,0.009 0.383,0.058 0.162,0.15 0.302,0.315 0.572,0.172 -0.214,-0.468 -0.615,-0.819 -0.819,-1.294 -0.08,-0.185 -0.222,-0.342 -0.321,-0.52 -0.28,-0.506 -0.672,-0.801 -1.275,-0.751 -0.117,0.946 0.389,1.822 1.366,2.118 -0.223,0.036 -0.345,0.056 -0.473,0.077 -0.246,0.372 0.138,0.703 0.097,1.018 m 0.625,4.243 c 0.208,-0.456 0.139,-0.912 0.274,-1.27 0.155,-0.413 0.024,-0.795 0.113,-1.135 -0.221,-0.41 -0.422,-0.784 -0.655,-1.215 -0.203,0.168 -0.361,0.299 -0.499,0.415 -0.13,1.165 0.46,2.118 0.767,3.205 M -3.802,9.668 c 0.096,0.362 0.117,0.762 0.266,1.208 C -3.31,10.212 -3.127,9.599 -2.89,9.007 -2.715,8.572 -2.769,8.134 -2.757,7.85 -2.925,7.602 -3.032,7.445 -3.144,7.28 c -0.102,0.07 -0.179,0.095 -0.208,0.147 -0.188,0.33 -0.365,0.667 -0.563,1.036 0.051,0.37 10e-4,0.778 0.113,1.205 m 1.919,-6.223 c -0.636,-0.141 -1.055,0.213 -1.273,0.625 -0.35,0.664 -0.79,1.261 -1.183,1.89 0.373,0.31 0.494,-0.28 0.848,-0.215 -0.184,0.388 -0.615,0.556 -0.751,0.959 -0.116,0.347 -0.461,0.618 -0.38,1.058 0.936,-0.316 1.064,-0.4 1.73,-1.125 C -2.835,6.31 -2.777,5.975 -2.717,5.628 -2.917,5.597 -3.05,5.576 -3.229,5.547 -2.184,5.105 -1.876,4.401 -1.883,3.445 M -2.196,9.063 C -1.946,8.301 -1.674,7.546 -1.461,6.773 -1.398,6.545 -1.496,6.27 -1.529,6.017 -1.55,5.857 -1.588,5.701 -1.634,5.469 -1.73,5.385 -1.884,5.251 -2.089,5.074 c -0.257,0.694 -0.543,1.311 -0.515,2.005 0.027,0.664 0.122,1.32 0.408,1.984 M -1.163,6.848 C -0.88,6.659 -0.881,6.66 -0.866,6.562 -0.803,6.151 -0.675,5.751 -0.711,5.322 -0.726,5.154 -0.605,4.98 -0.581,4.804 -0.521,4.38 -0.674,3.839 -0.855,3.332 -0.985,2.966 -1.168,2.695 -1.54,2.563 -1.592,2.615 -1.66,2.683 -1.737,2.76 v 0.493 c 0,0.361 0.036,0.726 -0.01,1.082 -0.049,0.383 0.24,0.627 0.323,0.958 0.128,0.512 0.308,1.005 0.261,1.555 M -0.18,2.311 C -0.289,1.787 -0.363,1.243 -0.698,0.618 -0.944,0.4 -1.221,-0.081 -1.852,-0.075 v 0.773 c -0.71,0.392 -1.171,0.959 -1.319,1.712 -0.076,0.383 -0.172,0.757 -0.346,1.089 -0.114,0.216 -0.092,0.394 -0.081,0.686 0.374,-0.373 0.649,-0.808 1.043,-1.001 0.454,-0.224 0.489,-0.627 0.66,-0.969 0.125,-0.25 0.136,-0.557 0.207,-0.88 0.259,0.446 0.434,0.856 0.728,1.223 0.327,0.409 0.498,0.944 0.778,1.506 0.068,-0.637 0.115,-1.211 0.002,-1.753 m -32.214,-14.61 h 39.24 v 28.44 h -39.24 z"
             style="fill:#007f00;fill-opacity:1;fill-rule:nonzero;stroke:none"
             id="path4566"
             inkscape:connector-curvature="0" /></g><g
           id="g4568"
           transform="translate(51.3354,231.8477)"><path
             d="M 0,0 V 2.539 H -0.665 C -1.345,1.893 -1.721,1.05 -2.104,0.07 -1.298,0.175 -0.669,-0.22 0,0"
             style="fill:#007f00;fill-opacity:1;fill-rule:nonzero;stroke:none"
             id="path4570"
             inkscape:connector-curvature="0" /></g><g
           id="g4572"
           transform="translate(47.8857,226.5234)"><path
             d="m 0,0 c -0.053,0.46 -0.036,0.924 -0.236,1.357 h -2.259 c 0.14,-1.365 0.555,-2.564 1.388,-3.565 0.488,0.138 1.001,0.283 1.513,0.429 C 0.264,-1.184 0.069,-0.599 0,0"
             style="fill:#007f00;fill-opacity:1;fill-rule:nonzero;stroke:none"
             id="path4574"
             inkscape:connector-curvature="0" /></g><g
           id="g4576"
           transform="translate(47.8607,229.0942)"><path
             d="M 0,0 C 0.031,0.236 -0.031,0.488 0.017,0.718 0.078,1.01 0.204,1.289 0.153,1.598 0.448,1.768 0.147,2.17 0.513,2.383 -0.088,2.596 -0.642,2.769 -1.196,2.871 -1.947,1.765 -2.362,0.646 -2.481,-0.607 H -0.19 C -0.117,-0.381 -0.025,-0.195 0,0"
             style="fill:#007f00;fill-opacity:1;fill-rule:nonzero;stroke:none"
             id="path4578"
             inkscape:connector-curvature="0" /></g><g
           id="g4580"
           transform="translate(49.4838,234.0322)"><path
             d="M 0,0 C -0.879,-0.381 -1.63,-0.761 -2.21,-1.47 -1.802,-1.603 -1.4,-1.733 -1.016,-1.858 -0.65,-1.19 -0.348,-0.637 0,0"
             style="fill:#007f00;fill-opacity:1;fill-rule:nonzero;stroke:none"
             id="path4582"
             inkscape:connector-curvature="0" /></g><path
           d="m 585.597,65.762 h -3.33 v 1.728 h 3.33 z m 0,-7.2 h -3.33 v 1.728 h 3.33 z m 0,-7.201 h -3.33 v 1.729 h 3.33 z m 0,-7.2 h -3.33 v 1.729 h 3.33 z m 0,-7.199 h -3.33 v 1.728 h 3.33 z m 0,-7.2 h -3.33 v 1.728 h 3.33 z m 1.935,7.812 v 29.772 c 0,1.988 -1.612,3.599 -3.6,3.599 -1.988,0 -3.601,-1.611 -3.601,-3.599 V 37.574 c -2.149,-1.245 -3.599,-3.565 -3.599,-6.228 0,-3.977 3.223,-7.2 7.2,-7.2 3.977,0 7.199,3.223 7.199,7.2 0,2.663 -1.449,4.983 -3.599,6.228"
           style="fill:#007f00;fill-opacity:1;fill-rule:nonzero;stroke:none"
           id="path4584"
           inkscape:connector-curvature="0" /><g
           id="g4586"
           transform="translate(95.7733,219.96)"><path
             d="m 0,0 v 5.76 h 5.76 v 4.32 H 0 v 5.76 h -4.32 v -5.76 h -5.76 V 5.76 h 5.76 V 0 Z"
             style="fill:#007f00;fill-opacity:1;fill-rule:nonzero;stroke:none"
             id="path4588"
             inkscape:connector-curvature="0" /></g></g></g></g></svg>